<?xml version="1.0" encoding="utf-8"?>
<!-- Generator: Adobe Illustrator 24.3.0, SVG Export Plug-In . SVG Version: 6.00 Build 0)  -->
<svg version="1.1" id="b3df86d2-2022-47c6-a781-bb5144daf06b"
	 xmlns="http://www.w3.org/2000/svg" xmlns:xlink="http://www.w3.org/1999/xlink" x="0px" y="0px" viewBox="0 0 391.36 390.65"
	 style="enable-background:new 0 0 391.36 390.65;" xml:space="preserve">
<style type="text/css">
	.st0{fill:#FFFFFF;}
</style>
<g>
	<path class="st0" d="M196.24,0c106.38-0.08,194.99,88.54,195.12,195.13c0.13,106.95-88.58,195.56-195.74,195.52
		C88.86,390.61-0.05,302.15,0,196.01C0.05,88.16,88.24,0.08,196.24,0z M10.51,195c-0.11,102.49,81.64,184.88,183.73,185.16
		c104.37,0.28,186.43-81.18,186.62-185.26c0.19-101.95-82.09-184.2-184.48-184.41C93,10.28,10.62,92.05,10.51,195z"/>
	<path class="st0" d="M131.55,194.98c15.45,15.34,29.99,29.74,44.48,44.18c18.64,18.57,37.25,37.17,55.86,55.77
		c1.05,1.05,2.61,2.13,2.81,3.38c0.31,1.9,0.3,4.59-0.82,5.76c-1.11,1.16-3.82,1.29-5.72,1.05c-1.24-0.15-2.39-1.67-3.44-2.72
		c-33.96-33.87-67.9-67.75-101.83-101.64c-4.44-4.43-4.46-6.38-0.04-10.8c34.05-34.01,68.11-68.01,102.18-102
		c0.93-0.93,1.98-2.31,3.07-2.4c1.94-0.16,4.62-0.14,5.74,1.02c1.13,1.16,1.3,3.94,0.84,5.74c-0.4,1.57-2.2,2.82-3.49,4.11
		c-31.58,31.54-63.17,63.07-94.78,94.57C135.15,192.27,133.62,193.31,131.55,194.98z"/>
</g>
</svg>
