<?xml version="1.0" encoding="utf-8"?>
<!-- Generator: Adobe Illustrator 24.3.0, SVG Export Plug-In . SVG Version: 6.00 Build 0)  -->
<svg version="1.1" id="Capa_1" xmlns="http://www.w3.org/2000/svg" xmlns:xlink="http://www.w3.org/1999/xlink" x="0px" y="0px"
	 viewBox="0 0 32 32" style="enable-background:new 0 0 32 32;" xml:space="preserve">
<style type="text/css">
	.st0{fill:#FFFFFF;}
	.st1{fill:#BF6D85;}
</style>
<g id="stiches">
	<g>
		<g id="Shopping_10_127_">
			<g>
				<g>
					<g>
						<g>
							<g>
								<path class="st0" d="M16,30.26c-7.86,0-14.26-6.4-14.26-14.26S8.14,1.74,16,1.74S30.26,8.14,30.26,16S23.86,30.26,16,30.26z
									 M16,2.49C8.55,2.49,2.49,8.55,2.49,16S8.55,29.51,16,29.51S29.51,23.45,29.51,16S23.45,2.49,16,2.49z"/>
							</g>
						</g>
					</g>
				</g>
			</g>
		</g>
		<g>
			<g>
				<g>
					<g>
						<g>
							<path class="st0" d="M16,0C16,0,15.99,0,16,0C15.99,0,15.99,0,16,0c-0.01,0-0.01,0-0.01,0c0,0,0,0,0,0s0,0-0.01,0
								c0,0,0,0,0,0c0,0,0,0-0.01,0c0,0,0,0,0,0c0,0,0,0-0.01,0h0c0,0,0,0-0.01,0c0,0,0,0,0,0c0,0-0.01,0-0.01,0c0,0,0,0,0,0
								c0,0-0.01,0-0.01,0c0,0,0,0,0,0c0,0,0,0-0.01,0c0,0,0,0,0,0c0,0,0,0-0.01,0c0,0,0,0,0,0c0,0,0,0-0.01,0c0,0,0,0,0,0
								c0,0,0,0-0.01,0h0c-0.01,0-0.01,0-0.02,0h0c0,0,0,0-0.01,0h0c0,0,0,0-0.01,0c0,0,0,0,0,0c0,0,0,0-0.01,0c0,0,0,0,0,0
								c0,0-0.01,0-0.01,0l0,0c-0.01,0-0.02,0-0.03,0l0,0c-0.24,0-0.48,0.01-0.71,0.02l0,0c0,0,0,0-0.01,0h0c0,0,0,0-0.01,0
								c0,0,0,0,0,0c0,0,0,0-0.01,0h0c0,0,0,0,0,0c0,0,0,0,0,0h0c-0.01,0-0.01,0-0.02,0h0c-0.01,0-0.02,0-0.02,0l0.04,0.75
								c0.3-0.01,0.6-0.02,0.91-0.02V0L16,0L16,0z M14.1,0.11c-0.17,0.02-0.34,0.04-0.5,0.07c0,0,0,0,0,0c0,0-0.01,0-0.01,0l0,0
								c-0.01,0-0.01,0-0.01,0c0,0,0,0,0,0c0,0,0,0-0.01,0c0,0,0,0,0,0s0,0,0,0c0,0,0,0,0,0s0,0,0,0c0,0,0,0,0,0h0
								c-0.13,0.02-0.26,0.04-0.39,0.06l0.13,0.74c0.3-0.05,0.59-0.1,0.9-0.13L14.1,0.11L14.1,0.11z M12.23,0.45
								c-0.14,0.03-0.27,0.07-0.41,0.1l0,0c0,0,0,0-0.01,0l0,0c-0.01,0-0.01,0-0.02,0l0,0c0,0,0,0-0.01,0c0,0,0,0,0,0c0,0,0,0,0,0
								c0,0,0,0,0,0c0,0,0,0-0.01,0s0,0,0,0c0,0,0,0,0,0s0,0,0,0c0,0,0,0,0,0c0,0,0,0,0,0c0,0,0,0,0,0c0,0,0,0-0.01,0c0,0,0,0,0,0
								c0,0,0,0-0.01,0h0c0,0-0.01,0-0.01,0l0,0c-0.14,0.04-0.28,0.08-0.43,0.12l0.22,0.72c0.29-0.09,0.58-0.17,0.87-0.24
								L12.23,0.45L12.23,0.45z M10.42,1c-0.3,0.11-0.59,0.23-0.88,0.36l0.3,0.69c0.27-0.12,0.56-0.24,0.84-0.34L10.42,1L10.42,1z
								 M8.68,1.77C8.6,1.81,8.53,1.85,8.45,1.89h0c0,0,0,0,0,0h0c0,0,0,0,0,0s0,0,0,0c0,0,0,0,0,0c0,0,0,0,0,0c0,0,0,0,0,0s0,0,0,0
								l0,0c0,0,0,0-0.01,0l0,0c-0.19,0.1-0.38,0.21-0.56,0.32l0.38,0.64c0.26-0.15,0.52-0.3,0.79-0.44L8.68,1.77L8.68,1.77z
								 M7.05,2.74C6.82,2.89,6.59,3.05,6.37,3.22h0c0,0,0,0,0,0l0,0c0,0,0,0,0,0c0,0,0,0-0.01,0l0,0c0,0,0,0-0.01,0l0,0
								c0,0,0,0-0.01,0h0C6.32,3.26,6.3,3.27,6.28,3.29l0.46,0.6C6.97,3.7,7.22,3.53,7.47,3.36L7.05,2.74L7.05,2.74z M5.54,3.89
								C5.3,4.1,5.07,4.31,4.84,4.53l0.52,0.54C5.58,4.86,5.8,4.66,6.03,4.46L5.54,3.89L5.54,3.89z M4.18,5.22
								C3.97,5.45,3.76,5.69,3.56,5.94l0.58,0.47c0.19-0.24,0.39-0.46,0.59-0.69L4.18,5.22L4.18,5.22z M2.98,6.69
								c-0.1,0.14-0.2,0.29-0.3,0.44l0,0c0,0,0,0,0,0.01v0c0,0,0,0,0,0.01v0c0,0-0.01,0.01-0.01,0.01l0,0c0,0,0,0,0,0l0,0
								c0,0,0,0,0,0c0,0,0,0,0,0c0,0,0,0,0,0.01c0,0,0,0,0,0c0,0,0,0,0,0.01c0,0,0,0,0,0c0,0,0,0,0,0s0,0,0,0c0,0,0,0,0,0
								c0,0,0,0,0,0c0,0,0,0,0,0c0,0,0,0,0,0c0,0,0,0,0,0c0,0,0,0,0,0c0,0,0,0,0,0c0,0,0,0,0,0c0,0,0,0,0,0s0,0,0,0c0,0,0,0,0,0
								c0,0,0,0,0,0c0,0,0,0,0,0c0,0,0,0,0,0c0,0,0,0,0,0s0,0,0,0c0,0,0,0,0,0c0,0,0,0,0,0c0,0,0,0,0,0c0,0,0,0,0,0c0,0,0,0,0,0
								c0,0,0,0,0,0c0,0,0,0,0,0.01c0,0,0,0,0,0c0,0,0,0,0,0c0,0,0,0,0,0c0,0,0,0,0,0s0,0,0,0c0,0,0,0,0,0s0,0,0,0c0,0,0,0,0,0
								c0,0,0,0,0,0c0,0,0,0,0,0l0,0c0,0,0,0,0,0s0,0,0,0c0,0,0,0,0,0c0,0,0,0,0,0c0,0,0,0,0,0.01l0,0c0,0,0,0,0,0.01l0,0
								c0,0,0,0,0,0.01c0,0,0,0,0,0c0,0,0,0,0,0l0,0c0,0-0.01,0.01-0.01,0.01l0,0c0,0,0,0.01,0,0.01l0,0c0,0,0,0,0,0.01l0,0
								C2.51,7.4,2.48,7.44,2.46,7.48l0.63,0.4c0.16-0.26,0.33-0.51,0.51-0.75L2.98,6.69L2.98,6.69z M1.97,8.3
								c-0.15,0.28-0.3,0.56-0.43,0.84l0.68,0.32c0.13-0.27,0.27-0.54,0.41-0.81L1.97,8.3L1.97,8.3z M1.16,10.01
								c-0.03,0.09-0.07,0.17-0.1,0.26v0c0,0.01,0,0.01-0.01,0.02v0c0,0,0,0,0,0.01c0,0,0,0,0,0c0,0,0,0,0,0.01v0
								c0,0.01,0,0.01-0.01,0.02c0,0,0,0,0,0c0,0,0,0,0,0.01c0,0,0,0,0,0c0,0,0,0,0,0l0,0c0,0,0,0,0,0v0c0,0,0,0.01,0,0.01l0,0
								c0,0,0,0,0,0.01c0,0,0,0,0,0c0,0,0,0,0,0l0,0c0,0,0,0,0,0c0,0,0,0,0,0c0,0.01,0,0.01,0,0.01l0,0c0,0,0,0,0,0c0,0,0,0,0,0
								c0,0,0,0,0,0c0,0,0,0,0,0C1,10.4,1,10.41,1,10.42v0c0,0,0,0,0,0.01v0c0,0,0,0,0,0.01v0c0,0.01,0,0.02-0.01,0.02l0,0
								c-0.05,0.14-0.1,0.28-0.15,0.43c0,0,0,0,0,0c0,0,0,0,0,0c0,0,0,0,0,0c0,0,0,0,0,0c0,0,0,0,0,0c0,0,0,0,0,0.01c0,0,0,0,0,0
								l0,0l0.71,0.24c0.1-0.29,0.2-0.57,0.31-0.85L1.16,10.01L1.16,10.01z M0.55,11.81C0.47,12.11,0.4,12.4,0.34,12.7l0,0
								c0,0.01,0,0.02,0,0.02c0,0,0,0,0,0c0,0,0,0,0,0.01v0c0,0,0,0,0,0l0.73,0.15c0.06-0.3,0.13-0.59,0.21-0.88L0.55,11.81
								L0.55,11.81z M0.17,13.67c-0.02,0.17-0.05,0.33-0.06,0.5v0c0,0,0,0,0,0.01c0,0,0,0,0,0c0,0,0,0,0,0.01l0,0
								c0,0.01,0,0.01,0,0.02v0c0,0,0,0,0,0c0,0,0,0,0,0s0,0,0,0c0,0,0,0,0,0s0,0,0,0c0,0,0,0,0,0c0,0,0,0,0,0c0,0,0,0,0,0
								c0,0,0,0,0,0c0,0,0,0.01,0,0.01c0,0,0,0,0,0c0,0,0,0,0,0.01v0c0,0,0,0,0,0.01c0,0,0,0,0,0c0,0,0,0,0,0.01c0,0,0,0,0,0
								c0,0,0,0,0,0.01l0,0c0,0.01,0,0.02,0,0.03l0,0c-0.01,0.1-0.02,0.21-0.03,0.31l0.75,0.06c0.03-0.3,0.06-0.6,0.1-0.9
								L0.17,13.67L0.17,13.67z M0.01,15.56C0,15.68,0,15.8,0,15.92v0c0,0,0,0,0,0.01c0,0,0,0,0,0c0,0,0,0,0,0.01v0c0,0,0,0,0,0.01
								c0,0,0,0,0,0c0,0,0,0,0,0.01c0,0,0,0,0,0c0,0,0,0,0,0.01c0,0,0,0,0,0c0,0,0,0,0,0.01c0,0,0,0,0,0c0,0,0,0,0,0v0c0,0,0,0,0,0
								c0,0,0,0,0,0s0,0,0,0c0,0,0,0,0,0s0,0,0,0c0,0,0,0,0,0c0,0,0,0,0,0.01c0,0,0,0,0,0c0,0,0,0,0,0l0,0c0,0,0,0,0,0.01
								c0,0,0,0,0,0c0,0,0,0,0,0s0,0,0,0c0,0,0,0,0,0c0,0,0,0,0,0c0,0,0,0,0,0.01c0,0,0,0,0,0c0,0,0,0,0,0.01c0,0,0,0,0,0s0,0,0,0
								c0,0,0,0,0,0s0,0,0,0v0c0,0,0,0,0,0.01c0,0,0,0,0,0c0,0,0,0,0,0.01c0,0,0,0,0,0c0,0,0,0,0,0.01c0,0,0,0,0,0c0,0,0,0,0,0.01v0
								c0,0,0,0.01,0,0.02l0,0c0,0,0,0,0,0.01v0c0,0,0,0,0,0.01v0c0,0.01,0,0.02,0,0.02l0,0c0,0.12,0,0.25,0.01,0.37l0.75-0.02
								c0-0.16-0.01-0.33-0.01-0.49c0-0.14,0-0.28,0.01-0.42L0.01,15.56L0.01,15.56z M0.81,17.39l-0.75,0.07
								c0.01,0.1,0.02,0.19,0.03,0.29c0,0,0,0,0,0c0,0,0,0,0,0.01v0c0,0,0,0,0,0v0c0,0,0,0,0,0c0,0,0,0,0,0c0,0,0,0,0,0.01
								c0,0,0,0,0,0s0,0,0,0c0,0,0,0,0,0v0c0,0,0,0,0,0v0c0.02,0.14,0.03,0.27,0.05,0.41l0,0c0,0,0,0,0,0.01v0c0,0,0,0,0,0
								c0,0,0,0,0,0c0,0,0,0,0,0c0,0,0,0,0,0s0,0,0,0c0,0,0,0,0,0.01c0,0,0,0,0,0c0,0,0,0,0,0.01c0,0,0,0,0,0c0,0,0,0,0,0.01v0
								c0.01,0.05,0.01,0.1,0.02,0.15l0.74-0.11C0.88,18,0.84,17.7,0.81,17.39L0.81,17.39z M1.08,19.18l-0.73,0.16
								c0.05,0.22,0.1,0.43,0.15,0.65v0c0,0,0,0,0,0s0,0,0,0c0,0,0,0,0,0c0,0,0,0,0,0.01c0,0,0,0,0,0c0,0,0,0,0,0c0,0,0,0,0,0
								c0,0,0,0,0,0v0c0.02,0.08,0.04,0.16,0.06,0.24l0.72-0.2C1.22,19.77,1.15,19.48,1.08,19.18L1.08,19.18z M1.56,20.93
								l-0.71,0.24c0.1,0.3,0.21,0.6,0.33,0.89l0.69-0.28C1.77,21.5,1.66,21.21,1.56,20.93L1.56,20.93z M2.25,22.6l-0.68,0.33
								c0.14,0.29,0.28,0.57,0.44,0.84l0.65-0.36C2.52,23.14,2.38,22.87,2.25,22.6L2.25,22.6z M3.13,24.18l-0.63,0.4
								c0.07,0.1,0.13,0.21,0.2,0.31l0,0c0.01,0.01,0.01,0.02,0.02,0.02c0,0,0,0,0,0c0,0,0,0,0,0l0,0c0,0,0,0,0,0c0,0,0,0,0,0
								c0,0,0,0,0,0.01l0,0c0,0,0,0,0,0l0,0c0,0,0,0,0,0s0,0,0,0c0,0,0,0,0,0c0,0,0,0,0,0c0,0,0,0,0,0c0,0,0.01,0.01,0.01,0.01
								c0,0,0,0,0,0c0,0,0,0,0,0c0,0,0,0,0,0c0.07,0.1,0.14,0.21,0.22,0.31l0,0c0,0,0,0,0,0l0,0c0,0,0.01,0.01,0.01,0.01l0,0
								c0,0,0,0,0,0c0,0,0,0,0,0c0,0,0,0,0,0c0,0,0,0,0,0c0,0,0,0,0,0c0,0,0,0,0,0c0,0,0,0,0,0c0,0,0,0,0,0.01v0
								c0.01,0.01,0.02,0.02,0.03,0.04l0.61-0.44C3.46,24.69,3.29,24.44,3.13,24.18L3.13,24.18z M4.19,25.65l-0.58,0.48
								c0.08,0.1,0.17,0.2,0.26,0.3l0,0c0,0,0,0,0,0s0,0,0,0c0,0,0,0,0,0l0,0c0,0,0,0,0.01,0.01c0,0,0,0,0,0c0,0,0,0,0,0
								c0,0,0,0,0,0c0,0,0,0,0,0c0,0,0,0,0,0c0,0,0,0,0,0c0,0,0,0,0,0l0,0c0,0,0,0,0.01,0v0c0,0,0,0,0,0c0,0,0,0,0,0c0,0,0,0,0,0
								c0,0,0,0,0,0c0,0,0,0,0,0l0,0c0,0,0,0,0.01,0.01l0,0c0,0,0,0,0,0l0,0c0,0,0,0,0,0l0,0c0,0,0,0,0,0c0,0,0,0,0,0
								c0,0,0,0,0.01,0l0,0c0,0,0,0,0,0l0,0c0,0,0,0,0,0l0,0c0,0,0,0,0,0l0,0c0,0,0.01,0.01,0.01,0.01c0,0,0,0,0,0s0,0,0,0s0,0,0,0
								c0,0,0,0,0,0l0,0c0,0,0.01,0.01,0.01,0.01c0,0,0,0,0,0c0,0,0,0,0,0c0,0,0,0,0,0c0,0,0,0,0,0l0,0c0,0,0,0,0,0l0,0c0,0,0,0,0,0
								c0,0,0,0,0,0c0,0,0,0,0,0c0,0,0,0,0,0c0,0,0,0,0,0c0,0,0,0,0,0c0,0,0,0,0,0c0,0,0.01,0.01,0.01,0.01c0,0,0,0,0,0c0,0,0,0,0,0
								c0,0,0,0,0,0c0.07,0.08,0.13,0.15,0.2,0.22l0.55-0.51C4.58,26.11,4.38,25.88,4.19,25.65L4.19,25.65z M5.42,26.98L4.9,27.52
								c0.05,0.04,0.09,0.09,0.13,0.13l0,0c0,0,0,0,0.01,0l0,0c0,0,0,0,0,0l0,0c0,0,0,0,0.01,0c0,0,0,0,0,0s0,0,0,0c0,0,0,0,0,0
								s0,0,0,0c0,0,0,0,0,0l0,0C5.24,27.84,5.42,28,5.6,28.16l0.49-0.57C5.86,27.39,5.64,27.19,5.42,26.98L5.42,26.98z M6.79,28.16
								l-0.45,0.6c0.13,0.1,0.26,0.19,0.39,0.29l0,0c0,0,0,0,0.01,0l0,0c0,0,0,0,0.01,0l0,0c0,0,0,0,0.01,0c0,0,0,0,0,0
								c0,0,0,0,0.01,0l0,0c0,0,0,0,0,0c0,0,0,0,0,0c0,0,0,0,0,0c0,0,0,0,0,0c0,0,0,0,0.01,0c0,0,0,0,0,0c0,0,0,0,0,0c0,0,0,0,0,0
								c0,0,0,0,0,0c0,0,0,0,0,0s0,0,0,0c0.01,0,0.01,0.01,0.02,0.01l0,0c0,0,0,0,0.01,0l0,0c0.1,0.07,0.2,0.14,0.3,0.2l0.42-0.62
								C7.28,28.52,7.03,28.34,6.79,28.16L6.79,28.16z M8.3,29.16l-0.38,0.65c0.27,0.16,0.55,0.31,0.83,0.46l0.34-0.67
								C8.82,29.46,8.56,29.32,8.3,29.16L8.3,29.16z M9.91,29.99l-0.3,0.69c0.29,0.13,0.58,0.24,0.88,0.35l0.26-0.7
								C10.47,30.22,10.19,30.11,9.91,29.99L9.91,29.99z M11.61,30.61l-0.22,0.72c0.07,0.02,0.13,0.04,0.2,0.06h0c0,0,0,0,0.01,0h0
								c0,0,0,0,0.01,0c0,0,0,0,0,0c0,0,0,0,0.01,0c0,0,0,0,0,0c0,0,0,0,0,0s0,0,0,0c0,0,0,0,0,0c0,0,0,0,0,0h0
								c0.21,0.06,0.42,0.11,0.64,0.17h0c0,0,0,0,0.01,0c0,0,0,0,0,0c0,0,0,0,0.01,0h0c0,0,0.01,0,0.01,0c0,0,0,0,0,0c0,0,0,0,0,0
								s0,0,0,0s0,0,0,0s0,0,0,0s0,0,0,0l0.17-0.73C12.19,30.77,11.9,30.69,11.61,30.61L11.61,30.61z M13.37,31.02l-0.13,0.74
								c0.3,0.05,0.61,0.1,0.92,0.13l0,0c0.01,0,0.01,0,0.02,0l0.08-0.75C13.97,31.12,13.67,31.08,13.37,31.02L13.37,31.02z
								 M15.17,31.23l-0.04,0.75C15.39,31.99,15.64,32,15.9,32h0c0,0,0,0,0.01,0h0c0,0,0,0,0.01,0s0,0,0,0c0,0,0,0,0.01,0
								c0,0,0,0,0,0c0,0,0,0,0.01,0c0,0,0,0,0,0c0,0,0,0,0,0c0,0,0,0,0,0c0,0,0,0,0,0c0,0,0,0,0,0s0,0,0,0c0,0,0,0,0,0s0,0,0,0
								c0,0,0,0,0,0s0,0,0,0c0,0,0,0,0,0s0,0,0,0s0,0,0,0s0,0,0,0c0,0,0,0,0,0s0,0,0,0s0,0,0,0c0,0,0,0,0.01,0h0c0,0,0.01,0,0.01,0
								c0,0,0.01,0,0.01,0c0,0,0,0,0,0s0,0,0,0c0.02,0,0.04,0,0.06,0l0-0.75H16C15.72,31.25,15.44,31.24,15.17,31.23L15.17,31.23z
								 M17.88,31.13c-0.3,0.04-0.6,0.07-0.9,0.08l0.05,0.75c0.32-0.02,0.63-0.05,0.95-0.09L17.88,31.13L17.88,31.13z M19.66,30.81
								c-0.29,0.07-0.59,0.14-0.89,0.19l0.14,0.74c0,0,0.01,0,0.01,0c0,0,0,0,0,0c0,0,0,0,0,0s0,0,0,0c0,0,0,0,0,0c0,0,0,0,0,0h0
								c0.3-0.06,0.6-0.12,0.9-0.19L19.66,30.81L19.66,30.81z M21.39,30.27c-0.28,0.11-0.57,0.2-0.86,0.29l0.22,0.72
								c0.24-0.08,0.48-0.16,0.72-0.24c0,0,0,0,0,0c0,0,0,0,0.01,0h0c0,0,0,0,0,0c0,0,0,0,0,0c0,0,0,0,0.01,0l0,0c0,0,0,0,0.01,0h0
								c0,0,0,0,0.01,0c0,0,0,0,0,0c0,0,0,0,0,0c0,0,0,0,0,0c0,0,0,0,0,0c0,0,0,0,0,0s0,0,0,0c0.01,0,0.01,0,0.02-0.01h0
								c0.04-0.01,0.07-0.03,0.11-0.04L21.39,30.27L21.39,30.27z M23.04,29.53c-0.27,0.14-0.54,0.27-0.82,0.39l0.31,0.68h0
								c0,0,0,0,0,0c0,0,0,0,0,0c0,0,0,0,0.01,0c0,0,0,0,0,0c0,0,0,0,0,0l0,0c0,0,0,0,0,0c0,0,0,0,0,0c0,0,0,0,0,0l0,0
								c0,0,0.01,0,0.01-0.01l0,0c0,0,0,0,0.01,0h0c0,0,0,0,0.01,0l0,0c0.01,0,0.01-0.01,0.02-0.01h0c0,0,0,0,0.01,0l0,0
								c0.01,0,0.01-0.01,0.02-0.01h0c0,0,0,0,0.01,0l0,0c0.25-0.11,0.5-0.24,0.74-0.36L23.04,29.53L23.04,29.53z M24.59,28.6
								c-0.25,0.17-0.5,0.33-0.76,0.49l0.39,0.64c0.27-0.16,0.54-0.33,0.8-0.51L24.59,28.6L24.59,28.6z M26.02,27.49
								c-0.23,0.2-0.46,0.39-0.7,0.58l0.46,0.59c0.1-0.08,0.2-0.16,0.3-0.24c0,0,0,0,0,0c0,0,0,0,0,0c0,0,0,0,0,0c0,0,0,0,0,0
								s0,0,0,0c0,0,0,0,0,0s0,0,0,0c0,0,0,0,0,0c0,0,0,0,0,0c0,0,0,0,0,0c0,0,0,0,0,0c0,0,0,0,0,0c0,0,0.01-0.01,0.01-0.01l0,0
								c0,0,0,0,0,0h0c0,0,0,0,0.01,0l0,0c0.13-0.1,0.25-0.21,0.38-0.32L26.02,27.49L26.02,27.49z M27.32,26.22
								c-0.2,0.22-0.41,0.44-0.63,0.65l0.53,0.53c0.2-0.19,0.39-0.4,0.58-0.6l0,0c0,0,0,0,0,0l0,0c0,0,0.01-0.01,0.01-0.01
								c0,0,0,0,0,0c0,0,0,0,0,0c0,0,0,0,0,0l0,0c0,0,0,0,0,0l0,0c0.02-0.02,0.03-0.04,0.05-0.06L27.32,26.22L27.32,26.22z
								 M28.45,24.81c-0.17,0.25-0.36,0.49-0.55,0.72L28.49,26c0.02-0.02,0.03-0.04,0.05-0.07c0,0,0,0,0,0c0,0,0,0,0,0c0,0,0,0,0,0
								c0,0,0,0,0,0c0,0,0,0,0,0l0,0c0,0,0.01-0.01,0.01-0.01l0,0c0.17-0.22,0.34-0.44,0.5-0.67L28.45,24.81L28.45,24.81z
								 M29.41,23.27c-0.14,0.27-0.3,0.53-0.46,0.78l0.64,0.4c0.17-0.27,0.33-0.54,0.48-0.82L29.41,23.27L29.41,23.27z M30.17,21.64
								c-0.11,0.28-0.23,0.56-0.36,0.83l0.68,0.32c0.01-0.02,0.02-0.03,0.02-0.05l0,0c0,0,0,0,0,0c0,0,0,0,0,0c0,0,0,0,0,0l0,0
								c0,0,0,0,0,0c0,0,0,0,0,0c0,0,0,0,0-0.01c0,0,0,0,0,0c0,0,0,0,0,0s0,0,0,0c0,0,0,0,0,0c0,0,0,0,0,0c0,0,0,0,0,0
								c0,0,0-0.01,0.01-0.01l0,0c0,0,0,0,0,0l0,0c0,0,0,0,0,0v0c0.09-0.2,0.18-0.41,0.27-0.61v0c0,0,0,0,0,0v0
								c0-0.01,0.01-0.02,0.01-0.03l0,0c0,0,0,0,0,0c0,0,0,0,0,0c0,0,0,0,0,0c0,0,0,0,0,0c0,0,0-0.01,0-0.01c0,0,0,0,0,0
								c0,0,0,0,0,0c0,0,0,0,0,0c0,0,0,0,0,0s0,0,0,0s0,0,0,0c0,0,0,0,0,0c0,0,0,0,0,0c0,0,0,0,0-0.01v0c0,0,0,0,0-0.01c0,0,0,0,0,0
								c0,0,0,0,0,0l0,0c0,0,0,0,0,0l0,0c0,0,0-0.01,0-0.01v0c0,0,0,0,0-0.01v0c0,0,0,0,0-0.01l0,0L30.17,21.64L30.17,21.64z
								 M30.74,19.92c-0.08,0.29-0.16,0.58-0.26,0.87l0.71,0.24c0.07-0.2,0.13-0.4,0.18-0.6v0c0,0,0,0,0,0s0,0,0,0c0,0,0,0,0,0
								s0,0,0,0c0,0,0,0,0,0s0,0,0,0c0,0,0,0,0-0.01c0,0,0,0,0,0s0,0,0,0s0,0,0,0s0,0,0,0c0,0,0,0,0,0c0,0,0,0,0,0c0,0,0,0,0,0
								c0,0,0,0,0,0c0,0,0,0,0-0.01v0c0,0,0,0,0-0.01c0,0,0,0,0,0c0,0,0,0,0,0c0,0,0,0,0,0c0,0,0,0,0,0s0,0,0,0c0,0,0,0,0,0v0
								c0,0,0-0.01,0-0.01v0c0,0,0,0,0,0v0c0,0,0,0,0-0.01c0,0,0,0,0,0c0,0,0,0,0-0.01l0,0c0,0,0-0.01,0-0.01c0,0,0,0,0,0
								c0,0,0,0,0-0.01v0c0,0,0,0,0-0.01v0c0,0,0-0.01,0-0.01l0,0c0,0,0,0,0-0.01v0c0,0,0,0,0-0.01v0c0,0,0,0,0-0.01v0
								c0,0,0,0,0-0.01v0c0,0,0,0,0-0.01l0,0c0,0,0,0,0-0.01v0c0,0,0,0,0,0s0,0,0,0c0,0,0,0,0,0c0,0,0,0,0,0c0,0,0-0.01,0-0.01
								c0,0,0,0,0,0c0,0,0,0,0,0s0,0,0,0s0,0,0,0s0,0,0,0s0,0,0,0s0,0,0,0s0,0,0,0c0,0,0-0.01,0-0.01c0,0,0,0,0,0c0,0,0,0,0,0v0
								c0,0,0,0,0,0l0,0c0-0.01,0-0.01,0-0.02L30.74,19.92L30.74,19.92z M31.1,18.14c-0.04,0.3-0.09,0.6-0.15,0.89l0.74,0.15
								c0.04-0.19,0.08-0.39,0.11-0.58c0,0,0,0,0,0c0,0,0,0,0-0.01c0,0,0,0,0,0c0,0,0,0,0,0c0,0,0,0,0,0c0,0,0,0,0,0v0c0,0,0,0,0,0
								c0,0,0,0,0,0c0,0,0,0,0-0.01c0,0,0,0,0,0c0,0,0,0,0,0v0c0,0,0,0,0,0c0,0,0,0,0,0s0,0,0,0c0,0,0,0,0,0c0,0,0,0,0,0
								c0,0,0,0,0,0s0,0,0,0c0,0,0,0,0-0.01c0,0,0,0,0,0c0,0,0,0,0,0c0,0,0,0,0,0c0,0,0,0,0,0c0,0,0,0,0,0s0,0,0,0c0,0,0,0,0,0
								c0,0,0,0,0,0c0,0,0,0,0,0c0-0.01,0-0.01,0-0.02v0c0,0,0,0,0,0c0,0,0,0,0,0c0,0,0,0,0,0c0,0,0,0,0,0c0,0,0,0,0,0c0,0,0,0,0,0
								c0-0.01,0-0.01,0-0.02c0,0,0,0,0,0c0,0,0,0,0,0c0,0,0,0,0,0c0,0,0,0,0,0c0,0,0,0,0,0s0,0,0,0c0,0,0,0,0,0c0,0,0,0,0,0
								c0,0,0,0,0,0c0,0,0,0,0-0.01v0c0,0,0,0,0,0c0,0,0,0,0,0c0,0,0,0,0,0c0,0,0,0,0,0s0,0,0,0s0,0,0,0c0,0,0,0,0,0c0,0,0,0,0,0
								c0,0,0,0,0,0c0,0,0,0,0-0.01s0,0,0,0c0,0,0,0,0,0c0,0,0,0,0,0c0,0,0,0,0-0.01c0,0,0,0,0,0c0,0,0,0,0-0.01v0
								c0-0.03,0.01-0.06,0.01-0.09L31.1,18.14L31.1,18.14z M31.25,16.34c-0.01,0.3-0.02,0.61-0.05,0.91l0.75,0.06
								c0.01-0.11,0.02-0.22,0.02-0.32v0c0,0,0,0,0,0v0c0,0,0,0,0,0s0,0,0,0s0,0,0,0c0,0,0,0,0,0c0,0,0,0,0,0c0-0.01,0-0.02,0-0.02
								l0,0c0,0,0,0,0-0.01l0,0c0.01-0.19,0.02-0.38,0.02-0.57L31.25,16.34L31.25,16.34z M31.93,14.46l-0.75,0.07
								c0.03,0.3,0.05,0.6,0.06,0.9l0.75-0.03c0-0.05,0-0.1-0.01-0.15l0,0c0,0,0,0,0-0.01v0c0,0,0,0,0-0.01v0c0,0,0,0,0-0.01v0
								c0,0,0-0.01,0-0.01c0,0,0,0,0,0c0,0,0,0,0,0c0,0,0,0,0-0.01c0,0,0,0,0,0c0,0,0,0,0-0.01c0,0,0,0,0,0c0,0,0,0,0-0.01
								c0,0,0,0,0,0c-0.01-0.15-0.02-0.3-0.03-0.44c0,0,0,0,0,0c0,0,0-0.01,0-0.01c0,0,0,0,0,0c0,0,0,0,0-0.01c0,0,0,0,0,0
								c0,0,0,0,0-0.01c0,0,0,0,0,0c0,0,0-0.01,0-0.01c0,0,0,0,0,0c0,0,0,0,0-0.01s0,0,0,0s0,0,0,0c0,0,0,0,0,0c0,0,0,0,0,0s0,0,0,0
								c0,0,0,0,0,0c0,0,0,0,0-0.01v0c0-0.01,0-0.02,0-0.02v0c0,0,0,0,0-0.01l0,0C31.94,14.59,31.93,14.53,31.93,14.46L31.93,14.46z
								 M31.63,12.58l-0.73,0.16c0.06,0.29,0.12,0.59,0.17,0.89l0.74-0.11c-0.03-0.18-0.06-0.36-0.09-0.53l0,0c0,0,0,0,0-0.01
								c0,0,0,0,0,0c0,0,0,0,0-0.01c0,0,0,0,0,0c0,0,0,0,0-0.01c0,0,0,0,0,0c0,0,0,0,0-0.01v0c0,0,0,0,0-0.01s0,0,0,0c0,0,0,0,0,0
								c0,0,0,0,0-0.01s0,0,0,0c0,0,0,0,0-0.01v0C31.68,12.81,31.66,12.7,31.63,12.58L31.63,12.58z M31.12,10.75L30.41,11
								c0.1,0.28,0.19,0.57,0.27,0.86l0.72-0.2c0,0,0,0,0,0s0,0,0,0s0,0,0,0s0,0,0,0s0,0,0,0s0,0,0,0s0,0,0,0s0,0,0,0s0,0,0,0
								c0,0,0,0,0-0.01c0,0,0,0,0,0c0,0,0,0,0,0c0,0,0,0,0,0s0,0,0,0s0,0,0,0c0,0,0,0,0,0s0,0,0,0c0,0,0,0,0,0c0-0.01,0-0.01,0-0.01
								c0,0,0,0,0,0c0,0,0,0,0,0c0,0,0,0,0,0c0,0,0,0,0,0c0,0,0,0,0,0c0,0,0,0,0-0.01l0,0c0-0.01,0-0.01,0-0.02l0,0c0,0,0,0,0-0.01
								v0c0,0,0,0,0-0.01v0c0-0.01,0-0.02-0.01-0.02l0,0c0,0,0,0,0-0.01l0,0c0,0,0,0,0-0.01l0,0c0-0.01,0-0.02-0.01-0.02v0
								c0,0,0,0,0-0.01v0C31.28,11.23,31.2,10.99,31.12,10.75L31.12,10.75z M30.39,9l-0.67,0.33c0.13,0.27,0.26,0.55,0.37,0.82
								l0.69-0.29C30.66,9.57,30.53,9.29,30.39,9L30.39,9z M29.46,7.35l-0.63,0.41c0.16,0.25,0.32,0.51,0.47,0.78l0.65-0.37
								C29.8,7.88,29.63,7.61,29.46,7.35L29.46,7.35z M28.34,5.81l-0.58,0.48c0.19,0.23,0.38,0.47,0.56,0.72l0.6-0.44
								c-0.1-0.14-0.21-0.28-0.32-0.42l0,0c0,0,0,0,0-0.01c0,0,0,0,0,0c0-0.01-0.01-0.01-0.01-0.02c0,0,0,0,0,0c0,0,0,0,0-0.01l0,0
								c0,0,0,0,0-0.01l0,0c0,0-0.01-0.01-0.01-0.01c0,0,0,0,0,0c0,0,0,0,0,0c0,0,0,0,0,0c0,0,0,0,0,0s0,0,0,0c0,0,0,0,0-0.01l0,0
								c0,0,0,0,0,0l0,0c0,0,0,0,0,0c0,0,0,0,0,0c0,0,0,0,0,0c0,0,0,0,0,0c0,0,0,0,0,0c0,0,0,0,0,0c0,0,0,0,0-0.01l0,0c0,0,0,0,0,0
								s0,0,0,0c0,0,0,0,0,0c0,0,0,0,0,0c0,0,0,0,0,0c0,0,0,0,0,0c0,0,0,0,0,0c0,0,0,0,0,0c0,0,0,0,0,0c0,0,0,0,0,0c0,0,0,0,0,0
								c0,0,0,0,0,0c0,0,0,0,0,0c0,0,0,0,0,0c0,0,0,0,0,0c0,0,0,0,0,0c0,0,0,0,0,0c0,0,0,0,0,0c0,0,0,0,0,0c0,0,0,0,0,0c0,0,0,0,0,0
								s0,0,0,0c0,0-0.01-0.01-0.01-0.01l0,0c0,0,0,0,0-0.01l0,0c0,0,0,0,0-0.01l0,0c0,0-0.01-0.01-0.01-0.01l0,0c0,0,0,0,0-0.01
								l0,0c0,0,0,0,0-0.01l0,0C28.41,5.9,28.37,5.86,28.34,5.81L28.34,5.81z M27.05,4.42l-0.52,0.54c0.22,0.21,0.43,0.42,0.64,0.64
								l0.55-0.51c-0.01-0.01-0.02-0.03-0.04-0.04c0,0,0,0,0,0c0,0,0-0.01-0.01-0.01c0,0,0,0,0,0c0,0-0.01-0.01-0.01-0.01
								c0,0,0,0,0,0c0,0,0,0-0.01-0.01s0,0,0-0.01c0,0,0,0,0,0c0,0,0,0-0.01-0.01s0,0,0-0.01c0,0,0,0-0.01-0.01c0,0,0,0,0,0
								c0,0,0-0.01-0.01-0.01c0,0,0,0,0,0c0,0,0-0.01-0.01-0.01c0,0,0,0,0,0c0,0,0-0.01-0.01-0.01c0,0,0,0,0,0
								c0,0-0.01-0.01-0.01-0.01c0,0,0,0,0,0c0,0-0.01-0.01-0.01-0.01c0,0,0,0,0,0c0,0-0.01-0.01-0.01-0.01l0,0
								c0,0-0.01-0.01-0.01-0.01c0,0,0,0,0,0c0,0-0.01-0.01-0.01-0.01l0,0c0,0-0.01-0.01-0.01-0.01l0,0c0,0-0.01-0.01-0.01-0.01l0,0
								c0,0-0.01-0.01-0.01-0.01l0,0c0,0-0.01-0.01-0.01-0.01l0,0c0,0-0.01-0.01-0.01-0.01c0,0,0,0,0,0c0,0-0.01-0.01-0.01-0.01l0,0
								c0,0-0.01-0.01-0.01-0.01c0,0,0,0,0,0c-0.01-0.01-0.01-0.01-0.02-0.02l0,0c-0.01-0.01-0.01-0.01-0.02-0.02l0,0
								c-0.01-0.01-0.01-0.01-0.02-0.02l0,0c-0.01-0.01-0.01-0.01-0.02-0.02l0,0c-0.01-0.01-0.01-0.01-0.02-0.02l0,0
								c-0.01-0.01-0.01-0.01-0.02-0.02l0,0c-0.01-0.01-0.03-0.03-0.04-0.04l0,0c0,0-0.01-0.01-0.01-0.01l0,0
								c-0.01-0.01-0.01-0.01-0.02-0.02l0,0c-0.01-0.01-0.01-0.01-0.02-0.02l0,0c-0.01-0.01-0.01-0.01-0.02-0.02l0,0
								c-0.01-0.01-0.01-0.01-0.02-0.02l0,0c-0.01-0.01-0.01-0.01-0.02-0.02l0,0c-0.01-0.01-0.01-0.01-0.02-0.02l0,0
								C27.12,4.5,27.08,4.46,27.05,4.42L27.05,4.42z M25.6,3.2l-0.45,0.6c0.24,0.18,0.48,0.37,0.71,0.57l0.49-0.57
								c-0.04-0.03-0.08-0.07-0.11-0.1l0,0c0,0,0,0,0,0c0,0,0,0,0,0c0,0,0,0,0,0c0,0,0,0,0,0l0,0c0,0,0,0,0,0c0,0,0,0,0,0
								C26,3.51,25.8,3.35,25.6,3.2L25.6,3.2z M24.01,2.15L23.64,2.8c0.26,0.15,0.52,0.31,0.77,0.48l0.41-0.62
								C24.56,2.47,24.29,2.31,24.01,2.15L24.01,2.15z M22.32,1.29l-0.3,0.69c0.28,0.12,0.55,0.25,0.82,0.38l0.34-0.67
								c0,0-0.01,0-0.01-0.01l0,0c0,0,0,0-0.01,0l0,0c0,0,0,0,0,0c0,0,0,0,0,0c0,0,0,0,0,0c0,0,0,0,0,0c0,0,0,0,0,0
								c0,0-0.01,0-0.01,0l0,0c0,0,0,0,0,0l0,0c-0.17-0.09-0.34-0.17-0.51-0.25c0,0,0,0,0,0c0,0,0,0,0,0h0
								c-0.01,0-0.01-0.01-0.02-0.01c0,0,0,0,0,0c0,0,0,0,0,0s0,0,0,0c0,0,0,0,0,0h0c0,0-0.01,0-0.01-0.01c0,0,0,0,0,0c0,0,0,0,0,0
								c0,0,0,0,0,0c0,0,0,0,0,0c0,0,0,0,0,0c0,0,0,0,0,0h0c0,0-0.01,0-0.01,0h0c0,0,0,0,0,0c0,0,0,0,0,0c0,0,0,0,0,0c0,0,0,0,0,0
								c0,0,0,0,0,0c0,0,0,0,0,0c0,0-0.01,0-0.01-0.01c0,0,0,0,0,0c0,0,0,0,0,0c0,0,0,0,0,0c0,0,0,0,0,0l0,0
								c-0.01,0-0.01-0.01-0.02-0.01l0,0c0,0,0,0,0,0l0,0c0,0,0,0,0,0l0,0c-0.01,0-0.01-0.01-0.02-0.01l0,0
								C22.39,1.33,22.35,1.31,22.32,1.29L22.32,1.29z M20.53,0.65l-0.21,0.72c0.29,0.09,0.58,0.18,0.86,0.28l0.25-0.71
								c-0.01,0-0.02-0.01-0.02-0.01l0,0c-0.01,0-0.01,0-0.02-0.01l0,0c0,0,0,0,0,0h0c0,0,0,0,0,0h0c0,0,0,0,0,0h0
								c0,0-0.01,0-0.01,0c0,0,0,0,0,0c0,0,0,0,0,0c0,0,0,0,0,0c0,0,0,0,0,0s0,0,0,0c0,0,0,0,0,0s0,0,0,0l0,0c0,0,0,0-0.01,0
								c0,0,0,0,0,0s0,0,0,0s0,0,0,0c0,0,0,0,0,0s0,0,0,0s0,0,0,0s0,0,0,0c0,0,0,0-0.01,0h0c0,0,0,0,0,0c0,0,0,0,0,0c0,0,0,0,0,0
								c0,0,0,0,0,0c0,0,0,0,0,0l0,0c0,0,0,0,0,0c0,0,0,0,0,0c0,0,0,0-0.01,0c0,0,0,0,0,0c0,0,0,0-0.01,0l0,0c0,0,0,0,0,0
								c0,0,0,0,0,0c0,0,0,0,0,0c0,0,0,0,0,0c-0.01,0-0.01,0-0.02-0.01h0c0,0,0,0-0.01,0c0,0,0,0,0,0c0,0,0,0,0,0c0,0,0,0,0,0
								c0,0,0,0-0.01,0l0,0c0,0,0,0-0.01,0l0,0c0,0,0,0-0.01,0h0c0,0,0,0-0.01,0h0c0,0,0,0,0,0h0c0,0-0.01,0-0.01,0c0,0,0,0,0,0
								c0,0,0,0,0,0l0,0c0,0,0,0,0,0l0,0c0,0,0,0-0.01,0h0c0,0-0.01,0-0.01,0c0,0,0,0,0,0c0,0,0,0,0,0c0,0,0,0,0,0c0,0,0,0,0,0l0,0
								c0,0,0,0,0,0c0,0,0,0,0,0c0,0,0,0,0,0c0,0,0,0,0,0c0,0,0,0,0,0s0,0,0,0s0,0,0,0s0,0,0,0s0,0,0,0s0,0,0,0c0,0,0,0,0,0
								c0,0-0.01,0-0.01,0c0,0,0,0,0,0c0,0,0,0,0,0l0,0c0,0,0,0,0,0s0,0,0,0c0,0,0,0,0,0l0,0C20.87,0.75,20.7,0.7,20.53,0.65
								L20.53,0.65z M18.68,0.22l-0.12,0.74c0.3,0.05,0.59,0.11,0.89,0.18l0.17-0.73C19.31,0.34,18.99,0.28,18.68,0.22L18.68,0.22z
								 M16.79,0.02l-0.04,0.75c0.3,0.01,0.6,0.04,0.9,0.07l0.08-0.75C17.43,0.06,17.11,0.03,16.79,0.02L16.79,0.02z"/>
						</g>
					</g>
				</g>
			</g>
		</g>
	</g>
	<g>
		<path class="st1" d="M23.25,21.93v-5.36c0-2.87-1.53-4.21-3.58-4.21c-1.65,0-2.39,0.91-2.8,1.54v-1.32h-3.11
			c0.04,0.88,0,9.35,0,9.35h3.11v-5.22c0-0.28,0.02-0.56,0.1-0.76c0.22-0.56,0.74-1.14,1.59-1.14c1.12,0,1.57,0.86,1.57,2.11v5
			L23.25,21.93L23.25,21.93z M10.49,11.3c1.08,0,1.76-0.72,1.76-1.62c-0.02-0.92-0.68-1.61-1.74-1.61s-1.76,0.7-1.76,1.61
			c0,0.9,0.68,1.62,1.72,1.62H10.49z M12.04,21.93v-9.35H8.94v9.35H12.04z"/>
	</g>
</g>
</svg>
