<?xml version="1.0" encoding="utf-8"?>
<!-- Generator: Adobe Illustrator 24.3.0, SVG Export Plug-In . SVG Version: 6.00 Build 0)  -->
<svg version="1.1" id="b3df86d2-2022-47c6-a781-bb5144daf06b"
	 xmlns="http://www.w3.org/2000/svg" xmlns:xlink="http://www.w3.org/1999/xlink" x="0px" y="0px" viewBox="0 0 253.24 253.24"
	 style="enable-background:new 0 0 253.24 253.24;" xml:space="preserve">
<style type="text/css">
	.st0{fill:#BF6D85;}
	.st1{enable-background:new    ;}
	.st2{fill:#FFFFFF;}
</style>
<g>
	<circle class="st0" cx="126.91" cy="126.91" r="126.33"/>
</g>
<g>
</g>
<g class="st1">
	<g>
		<path class="st2" d="M183.81,184.14c-1.46-1.65-1.3-4.18,0.34-5.64l0,0c1.65-1.46,4.17-1.3,5.64,0.34l0,0
			c1.46,1.66,1.3,4.18-0.34,5.64l0,0c-0.77,0.68-1.71,1-2.65,1l0,0C185.7,185.48,184.6,185.04,183.81,184.14z M170.95,169.82
			c-1.47-1.65-1.31-4.18,0.34-5.64l0,0c1.66-1.46,4.18-1.3,5.64,0.34l0,0c1.46,1.65,1.3,4.18-0.34,5.64l0,0
			c-0.76,0.68-1.71,1-2.65,1l0,0C172.84,171.16,171.74,170.71,170.95,169.82z M158.09,155.5c-1.46-1.65-1.3-4.17,0.34-5.64l0,0
			c1.65-1.46,4.18-1.3,5.64,0.34l0,0c1.46,1.65,1.3,4.18-0.34,5.64l0,0c-0.76,0.68-1.7,1-2.64,1l0,0
			C159.98,156.86,158.89,156.39,158.09,155.5z M145.24,141.18c-1.46-1.66-1.3-4.18,0.34-5.64l0,0c1.66-1.47,4.18-1.31,5.64,0.34l0,0
			c1.47,1.65,1.31,4.18-0.34,5.64l0,0c-0.76,0.68-1.71,1-2.65,1l0,0C147.12,142.54,146.03,142.07,145.24,141.18z M195.29,75.66
			c-1.65,1.46-4.18,1.3-5.64-0.34l0,0c-1.46-1.65-1.3-4.17,0.34-5.64l0,0c1.66-1.46,4.18-1.3,5.64,0.34l0,0c0.68,0.77,1,1.71,1,2.65
			l0,0C196.64,73.77,196.19,74.88,195.29,75.66z M180.97,88.52c-1.65,1.47-4.18,1.31-5.64-0.34l0,0c-1.46-1.66-1.3-4.18,0.34-5.64
			l0,0c1.65-1.46,4.18-1.3,5.64,0.34l0,0c0.68,0.76,1,1.71,1,2.65l0,0C182.33,86.63,181.86,87.73,180.97,88.52z M137.97,127.12
			l28.65-25.73c1.64-1.48,1.78-3.99,0.3-5.64c-1.48-1.64-3.99-1.78-5.64-0.3l-28.65,25.74c-1.64,1.48-1.78,3.99-0.3,5.64
			c0.78,0.87,1.86,1.31,2.95,1.32C136.24,128.15,137.2,127.81,137.97,127.12z M135.31,128.28c-0.01,0-0.01,0-0.02,0
			c-1.16-0.01-2.28-0.51-3.05-1.38c-0.74-0.82-1.11-1.88-1.05-2.98c0.06-1.1,0.55-2.11,1.37-2.85l28.65-25.74
			c0.82-0.74,1.88-1.11,2.98-1.05c1.1,0.06,2.11,0.55,2.85,1.37c0.74,0.82,1.11,1.88,1.05,2.98c-0.06,1.1-0.55,2.11-1.37,2.85
			l-28.65,25.74C137.3,127.9,136.33,128.28,135.31,128.28z M135.29,128.01c0.01,0,0.01,0,0.02,0c0.95,0,1.86-0.35,2.58-0.99
			l28.65-25.74c0.77-0.69,1.21-1.63,1.27-2.66c0.05-1.03-0.29-2.01-0.98-2.78c-0.69-0.77-1.63-1.21-2.66-1.27
			c-1.02-0.06-2.01,0.29-2.78,0.98l-28.65,25.74c-0.77,0.69-1.21,1.63-1.27,2.66c-0.05,1.03,0.29,2.01,0.98,2.78
			C133.16,127.53,134.19,127.99,135.29,128.01z M62.11,76.24c0.25-0.05,0.51-0.12,0.75-0.23c0.24-0.1,0.48-0.22,0.69-0.36
			c0.21-0.15,0.42-0.31,0.61-0.5c0.75-0.75,1.17-1.78,1.17-2.82c0-0.26-0.02-0.53-0.07-0.78c-0.05-0.25-0.13-0.51-0.23-0.75
			c-0.1-0.24-0.22-0.48-0.37-0.69c-0.14-0.21-0.3-0.42-0.5-0.61c-0.18-0.18-0.38-0.35-0.61-0.5c-0.21-0.14-0.46-0.27-0.69-0.37
			c-0.24-0.1-0.5-0.17-0.75-0.22c-0.52-0.11-1.04-0.11-1.56,0c-0.25,0.05-0.51,0.12-0.75,0.22c-0.24,0.1-0.48,0.23-0.69,0.37
			s-0.42,0.31-0.61,0.5c-0.19,0.18-0.35,0.38-0.5,0.61c-0.15,0.21-0.27,0.46-0.37,0.69c-0.1,0.24-0.17,0.49-0.23,0.75
			c-0.05,0.25-0.07,0.52-0.07,0.78c0,1.05,0.42,2.07,1.17,2.82c0.18,0.18,0.38,0.34,0.61,0.5c0.21,0.14,0.46,0.27,0.69,0.36
			c0.24,0.1,0.5,0.18,0.75,0.23c0.25,0.05,0.52,0.08,0.78,0.08C61.6,76.32,61.86,76.29,62.11,76.24z M94.24,181.59
			c-0.09-2.2,1.62-4.07,3.82-4.16l0,0c2.2-0.09,4.07,1.62,4.16,3.82l0,0c0.09,2.2-1.63,4.07-3.83,4.16l0,0c-0.06,0-0.11,0-0.17,0
			l0,0C96.09,185.41,94.33,183.73,94.24,181.59z M79.24,181.36c-2.01-0.92-2.88-3.3-1.96-5.3l0,0c0.92-2,3.3-2.88,5.3-1.96l0,0l0,0
			l0,0c2,0.92,2.88,3.3,1.96,5.3l0,0c-0.68,1.47-2.11,2.33-3.63,2.33l0,0C80.35,181.73,79.78,181.61,79.24,181.36z M65.05,164.54
			c-0.94-1.99-0.1-4.37,1.9-5.32l0,0c1.99-0.95,4.37-0.1,5.32,1.89l0,0c0.95,1.99,0.1,4.38-1.89,5.32l0,0
			c-0.56,0.26-1.13,0.38-1.71,0.38l0,0C67.16,166.83,65.73,165.99,65.05,164.54z M59.37,144.6c-0.32-2.18,1.18-4.22,3.36-4.54l0,0
			c2.18-0.32,4.22,1.18,4.54,3.36l0,0c0.32,2.18-1.18,4.21-3.37,4.54l0,0c-0.2,0.03-0.4,0.05-0.6,0.05l0,0
			C61.38,148.01,59.67,146.58,59.37,144.6z M57.18,124.35L57.18,124.35c-0.1-2.2,1.62-4.07,3.82-4.16l0,0
			c2.2-0.09,4.07,1.62,4.16,3.82l0,0c0,0,0,0,0-0.01l0,0c0.09,2.2-1.62,4.07-3.82,4.17l0,0c-0.06,0-0.11,0-0.17,0l0,0
			C59.04,128.18,57.27,126.5,57.18,124.35z M115.69,181.73L115.69,181.73c-1.52,0-2.95-0.86-3.63-2.33l0,0
			c-0.92-2-0.05-4.38,1.96-5.3l0,0l0,0l0,0c2.01-0.92,4.38-0.05,5.3,1.96l0,0c0.92,2.01,0.05,4.38-1.96,5.3
			C116.81,181.61,116.25,181.73,115.69,181.73z M127.94,166.84L127.94,166.84c-0.58,0-1.16-0.12-1.71-0.38l0,0
			c-1.99-0.95-2.84-3.34-1.89-5.32l0,0c0.95-1.99,3.33-2.84,5.32-1.89l0,0c1.99,0.95,2.84,3.33,1.9,5.32
			C130.87,165.99,129.43,166.83,127.94,166.84z M133.27,148.01L133.27,148.01c-0.19,0-0.39-0.02-0.6-0.05l0,0
			c-2.18-0.32-3.69-2.36-3.37-4.54l0,0c0.32-2.18,2.36-3.69,4.54-3.36l0,0c2.18,0.32,3.69,2.35,3.36,4.54
			C136.92,146.58,135.22,148.01,133.27,148.01z M57.2,106.91c-0.01-2.2,1.78-4,3.98-4l0,0c2.2-0.01,4,1.78,4,3.97l0,0
			c0.01,2.2-1.77,4-3.97,4.01l0,0c-0.01,0-0.01,0-0.02,0l0,0C59,110.9,57.21,109.12,57.2,106.91z M61.23,93.6
			c-2.2-0.01-3.98-1.81-3.97-4.01l0,0c0.01-2.2,1.81-3.98,4.01-3.97l0,0c2.2,0.02,3.98,1.81,3.97,4.02l0,0
			c-0.01,2.19-1.8,3.96-3.99,3.96l0,0H61.23z M57.26,84.64L57.26,84.64L57.26,84.64L57.26,84.64L57.26,84.64z"/>
	</g>
</g>
</svg>
