<?xml version="1.0" encoding="utf-8"?>
<!-- Generator: Adobe Illustrator 24.3.0, SVG Export Plug-In . SVG Version: 6.00 Build 0)  -->
<svg version="1.1" id="b3df86d2-2022-47c6-a781-bb5144daf06b"
	 xmlns="http://www.w3.org/2000/svg" xmlns:xlink="http://www.w3.org/1999/xlink" x="0px" y="0px" viewBox="0 0 121.6 121.37"
	 style="enable-background:new 0 0 121.6 121.37;" xml:space="preserve">
<style type="text/css">
	.st0{fill:#FFFFFF;}
	.st1{fill:#E6E6E6;}
	.st2{fill:#CCCCCC;}
	.st3{fill:#6C63FF;}
	.st4{opacity:0.2;enable-background:new    ;}
	.st5{fill:#2F2E41;}
	.st6{fill:#A0616A;}
	.st7{fill:#575A89;}
	.st8{fill:#3F3D56;}
	.st9{fill:#B3B3B3;}
	.st10{fill:#D0CDE1;}
	.st11{fill:#F6B198;}
	.st12{fill:#FCD2C5;}
	.st13{fill:#D8D8D8;}
	.st14{fill:#F47382;}
	.st15{fill:#BF6D85;}
	.st16{fill:#6C5C7A;}
	.st17{fill:#375D7C;}
	.st18{fill:#474545;}
	.st19{fill:#FFFBD5;}
	.st20{fill:#8EBAA9;}
	.st21{fill:#D2CFA9;}
	.st22{fill:#B0B0B2;}
	.st23{fill:#8F9094;}
	.st24{fill:#4D383F;}
	.st25{fill:#FFAFBD;}
	.st26{fill:#FFC3A0;}
	.st27{fill:#717377;}
	.st28{fill:#CFC9C6;}
	.st29{fill:#777776;}
	.st30{fill:#BCB6B3;}
	.st31{fill:none;stroke:#BCB6B3;stroke-width:6;stroke-miterlimit:10;}
	.st32{fill:none;stroke:#BCB6B3;stroke-width:2.956;stroke-miterlimit:10;}
	.st33{fill:none;stroke:#BCB6B3;stroke-width:4;stroke-miterlimit:10;}
	.st34{fill:none;stroke:#BCB6B3;stroke-width:4;stroke-linecap:round;stroke-linejoin:round;stroke-miterlimit:10;}
	.st35{fill:none;stroke:#BCB6B3;stroke-miterlimit:10;}
	.st36{fill:none;stroke:#FFFBD5;stroke-miterlimit:10;}
	.st37{fill:#606060;}
	.st38{fill:#FCD2C5;stroke:#FCD2C5;stroke-miterlimit:10;}
	.st39{fill:#FEBCAD;}
	.st40{fill:none;stroke:#FCD2C5;stroke-width:3;stroke-linecap:round;stroke-linejoin:round;stroke-dasharray:0,12.7934;}
</style>
<g>
	<path class="st39" d="M106.05,21.24c-0.61-0.67-1.46-1.04-2.34-1.04c-0.34,0-0.67,0.05-1,0.16L36.25,42.68
		c-1.24,0.42-2.1,1.56-2.14,2.87c-0.03,0.84,0.27,1.63,0.81,2.23c0.3,0.33,0.68,0.61,1.11,0.79l27.02,11.45l8.6,28.06
		c0.38,1.25,1.5,2.14,2.81,2.22c0.07,0,0.14,0.01,0.21,0.01c1.23,0,2.35-0.72,2.87-1.84l29.05-63.8
		C107.1,23.51,106.89,22.17,106.05,21.24z M68.19,55.38l-22.06-9.37l51.7-17.36L68.19,55.38z"/>
</g>
<g>
	<path class="st25" d="M58.33,117.24L58.33,117.24c-0.83-0.04-1.47-0.73-1.44-1.56l0,0c0.04-0.83,0.73-1.47,1.56-1.44l0,0
		c0.83,0.03,1.47,0.73,1.44,1.56l0,0c-0.03,0.81-0.7,1.44-1.5,1.44l0,0C58.37,117.24,58.35,117.24,58.33,117.24z M69.64,115.08
		c-0.15-0.82,0.38-1.6,1.19-1.76l0,0c0.82-0.15,1.6,0.38,1.76,1.19l0,0c0.16,0.82-0.38,1.6-1.19,1.76l0,0
		c-0.1,0.02-0.19,0.02-0.29,0.02l0,0C70.41,116.29,69.78,115.8,69.64,115.08z M45.38,115.19c-0.8-0.22-1.26-1.05-1.04-1.85l0,0
		c0.23-0.8,1.05-1.26,1.85-1.04l0,0c0.8,0.23,1.26,1.05,1.04,1.85l0,0c-0.18,0.66-0.79,1.1-1.44,1.1l0,0
		C45.65,115.25,45.52,115.23,45.38,115.19z M81.92,111.56c-0.34-0.76-0.01-1.65,0.75-1.99l0,0c0.75-0.34,1.64-0.01,1.98,0.75l0,0
		c0.34,0.76,0.01,1.64-0.75,1.99l0,0c-0.2,0.09-0.41,0.13-0.61,0.13l0,0C82.72,112.44,82.17,112.11,81.92,111.56z M33.26,110.2
		c-0.72-0.41-0.99-1.32-0.58-2.04l0,0c0.4-0.73,1.31-0.99,2.04-0.58l0,0c0.72,0.4,0.98,1.31,0.58,2.03l0,0
		c-0.28,0.5-0.79,0.78-1.31,0.78l0,0C33.74,110.39,33.49,110.33,33.26,110.2z M93.04,105.28c-0.5-0.65-0.38-1.59,0.27-2.1l0,0
		c0.66-0.51,1.6-0.38,2.11,0.27l0,0c0.5,0.66,0.38,1.6-0.28,2.11l0,0c-0.27,0.21-0.59,0.31-0.91,0.31l0,0
		C93.78,105.87,93.34,105.67,93.04,105.28z M22.62,102.54c-0.61-0.56-0.66-1.5-0.1-2.12l0,0c0.56-0.61,1.51-0.65,2.12-0.09l0,0
		c0.61,0.55,0.66,1.5,0.1,2.11l0,0c-0.3,0.33-0.7,0.49-1.11,0.49l0,0C23.27,102.93,22.91,102.81,22.62,102.54z M102.42,96.62
		c-0.64-0.52-0.74-1.47-0.22-2.11l0,0c0.53-0.64,1.47-0.74,2.11-0.21l0,0c0.65,0.52,0.74,1.46,0.22,2.1v0.01
		c-0.3,0.36-0.73,0.55-1.16,0.55l0,0C103.03,96.96,102.7,96.85,102.42,96.62z M14.02,92.65L14.02,92.65
		c-0.47-0.68-0.3-1.62,0.39-2.08l0,0c0.68-0.47,1.61-0.3,2.08,0.39l0,0c0.47,0.68,0.3,1.61-0.39,2.08l0,0
		c-0.26,0.18-0.55,0.26-0.85,0.26l0,0C14.78,93.3,14.31,93.08,14.02,92.65z M109.56,86.04c-0.75-0.36-1.06-1.25-0.7-2l0,0
		c0.36-0.75,1.26-1.06,2.01-0.7l0,0c0.74,0.36,1.06,1.26,0.7,2.01l0,0c-0.26,0.53-0.8,0.84-1.36,0.84l0,0
		C109.99,86.19,109.77,86.15,109.56,86.04z M7.92,81.04c-0.29-0.77,0.09-1.64,0.87-1.94l0,0c0.77-0.3,1.64,0.09,1.93,0.87l0,0
		c0,0,0,0,0-0.01l0,0c0.3,0.78-0.09,1.64-0.86,1.94l0,0C9.68,81.97,9.5,82,9.32,82l0,0C8.72,82,8.15,81.64,7.92,81.04z M114.07,74.1
		c-0.81-0.18-1.32-0.98-1.15-1.79l0,0c0.18-0.81,0.98-1.32,1.79-1.14l0,0c0.81,0.18,1.32,0.98,1.14,1.79l0,0
		c-0.15,0.7-0.77,1.17-1.46,1.17l0,0C114.28,74.13,114.17,74.12,114.07,74.1z M4.69,68.33c-0.11-0.82,0.46-1.58,1.29-1.69l0,0
		c0.82-0.11,1.57,0.47,1.68,1.29l0,0c0.11,0.82-0.47,1.58-1.29,1.69l0,0c-0.07,0.01-0.13,0.01-0.2,0.01l0,0
		C5.43,69.63,4.79,69.08,4.69,68.33z M114.16,59.96c0-0.04,0-0.07,0-0.11l0,0c0-0.03,0-0.07,0-0.11l0,0c0,0,0,0,0,0.01l0,0
		c-0.02-0.83,0.64-1.52,1.47-1.53l0,0c0.82-0.02,1.51,0.64,1.53,1.47l0,0c0,0.04,0,0.08-0.01,0.11l0,0
		c0.01,0.04,0.01,0.08,0.01,0.12l0,0c0.01,0.82-0.65,1.5-1.48,1.52l0,0c-0.01,0-0.01,0-0.02,0l0,0
		C114.84,61.44,114.17,60.78,114.16,59.96z M5.8,56.87c-0.82-0.09-1.43-0.82-1.35-1.64l0,0c0.09-0.83,0.82-1.43,1.64-1.35l0,0
		c0.83,0.08,1.43,0.81,1.35,1.64l0,0l0,0l0,0c-0.08,0.77-0.73,1.35-1.49,1.35l0,0C5.9,56.87,5.85,56.87,5.8,56.87z M112.48,47.44
		C112.48,47.44,112.48,47.44,112.48,47.44L112.48,47.44c-0.2-0.8,0.28-1.62,1.09-1.82l0,0c0.8-0.21,1.62,0.27,1.82,1.08l0,0
		c0.21,0.8-0.28,1.62-1.08,1.82l0,0c-0.12,0.04-0.25,0.05-0.37,0.05l0,0C113.27,48.57,112.66,48.12,112.48,47.44z M8.17,44.32
		c-0.78-0.27-1.2-1.12-0.93-1.9v-0.01c0.27-0.78,1.13-1.19,1.91-0.92l0,0c0.78,0.27,1.2,1.12,0.93,1.9l0,0
		c-0.21,0.62-0.8,1.01-1.42,1.01l0,0C8.5,44.4,8.34,44.38,8.17,44.32z M13.39,32.68c-0.7-0.45-0.91-1.38-0.47-2.08l0,0
		c0.45-0.69,1.37-0.9,2.07-0.46l0,0c0.7,0.44,0.91,1.37,0.47,2.07l0,0c-0.29,0.45-0.77,0.7-1.27,0.7l0,0
		C13.91,32.91,13.64,32.83,13.39,32.68z M21.15,22.54c-0.58-0.59-0.57-1.54,0.02-2.12l0,0c0.59-0.58,1.54-0.57,2.12,0.02l0,0
		c0.58,0.59,0.57,1.54-0.02,2.12l0,0c-0.29,0.29-0.67,0.43-1.05,0.43l0,0C21.83,22.99,21.44,22.84,21.15,22.54z M31.03,14.45
		c-0.43-0.71-0.21-1.63,0.51-2.06l0,0c0.7-0.43,1.63-0.2,2.05,0.51l0,0c0.43,0.71,0.2,1.63-0.51,2.06l0,0l0,0l0,0
		c-0.24,0.15-0.5,0.22-0.77,0.22l0,0C31.8,15.18,31.31,14.92,31.03,14.45z M80.94,11.27c0,0,0,0-0.01,0l0,0
		c-0.76-0.31-1.13-1.18-0.82-1.95l0,0c0.32-0.77,1.2-1.13,1.96-0.82l0,0c0.77,0.31,1.13,1.19,0.82,1.96l0,0
		c-0.24,0.58-0.8,0.93-1.39,0.93l0,0C81.31,11.39,81.12,11.35,80.94,11.27z M42.5,8.86c-0.25-0.79,0.19-1.64,0.98-1.89l0,0
		c0.79-0.25,1.63,0.19,1.88,0.98l0,0c0.25,0.78-0.18,1.63-0.97,1.88l0,0c-0.15,0.05-0.31,0.07-0.46,0.07l0,0
		C43.3,9.9,42.71,9.5,42.5,8.86z M68.98,7.94c-0.82-0.12-1.38-0.89-1.25-1.71l0,0c0.13-0.82,0.89-1.38,1.71-1.25l0,0
		c0.82,0.13,1.38,0.9,1.25,1.71l0,0c-0.11,0.74-0.75,1.27-1.48,1.27l0,0C69.14,7.96,69.06,7.96,68.98,7.94z M54.96,6.08
		c-0.06-0.83,0.56-1.55,1.39-1.61l0,0c0.82-0.06,1.54,0.56,1.6,1.38l0,0c0.07,0.83-0.55,1.55-1.38,1.61l0,0
		c-0.04,0-0.07,0.01-0.11,0.01l0,0C55.68,7.47,55.02,6.87,54.96,6.08z"/>
</g>
</svg>
