<?xml version="1.0" encoding="utf-8"?>
<!-- Generator: Adobe Illustrator 24.3.0, SVG Export Plug-In . SVG Version: 6.00 Build 0)  -->
<svg version="1.1" id="b3df86d2-2022-47c6-a781-bb5144daf06b"
	 xmlns="http://www.w3.org/2000/svg" xmlns:xlink="http://www.w3.org/1999/xlink" x="0px" y="0px" viewBox="0 0 253.24 253.24"
	 style="enable-background:new 0 0 253.24 253.24;" xml:space="preserve">
<style type="text/css">
	.st0{fill:#E6E6E6;}
	.st1{fill:#CCCCCC;}
	.st2{fill:#6C63FF;}
	.st3{opacity:0.2;enable-background:new    ;}
	.st4{fill:#2F2E41;}
	.st5{fill:#A0616A;}
	.st6{fill:#575A89;}
	.st7{fill:#3F3D56;}
	.st8{fill:#FFFFFF;}
	.st9{fill:#B3B3B3;}
	.st10{fill:#D0CDE1;}
	.st11{fill:#F6B198;}
	.st12{fill:#FCD2C5;}
	.st13{fill:#F47382;}
	.st14{fill:#BF6D85;}
	.st15{fill:#6C5C7A;}
	.st16{fill:#375D7C;}
	.st17{fill:#CFC9C6;}
	.st18{fill:#777776;}
	.st19{fill:#BCB6B3;}
	.st20{fill:none;stroke:#BCB6B3;stroke-width:6;stroke-miterlimit:10;}
	.st21{fill:none;stroke:#BCB6B3;stroke-width:2.956;stroke-miterlimit:10;}
	.st22{fill:none;stroke:#BCB6B3;stroke-width:4;stroke-miterlimit:10;}
	.st23{fill:none;stroke:#BCB6B3;stroke-width:4;stroke-linecap:round;stroke-linejoin:round;stroke-miterlimit:10;}
	.st24{fill:none;stroke:#BCB6B3;stroke-miterlimit:10;}
</style>
<g>
	<g>
		<path class="st19" d="M117.55,189.27c-3.95-4.47-3.53-11.29,0.93-15.24l0,0c4.47-3.96,11.29-3.55,15.24,0.93l0,0
			c3.96,4.46,3.55,11.29-0.92,15.24l0,0c-2.05,1.82-4.61,2.71-7.16,2.71l0,0C122.66,192.91,119.68,191.68,117.55,189.27z"/>
		<g>
			<g>
				<g>
					<path class="st19" d="M94.05,151.25l77.42-69.54c4.44-3.98,4.8-10.81,0.82-15.24c-3.98-4.44-10.81-4.8-15.24-0.82l-77.42,69.54
						c-4.44,3.98-4.8,10.81-0.82,15.24c2.12,2.36,5.04,3.57,7.98,3.58C89.38,154.03,91.98,153.12,94.05,151.25z"/>
				</g>
			</g>
		</g>
	</g>
	<line class="st21" x1="125.55" y1="230.99" x2="125.55" y2="253.16"/>
	<line class="st21" x1="252.74" y1="127.9" x2="230.57" y2="127.9"/>
	<line class="st21" x1="22.17" y1="127.9" x2="0" y2="127.9"/>
	<path class="st19" d="M135.19,20.7l-8.73-20.11C126.3,0.23,125.94,0,125.55,0c-0.39,0-0.75,0.23-0.9,0.59l-8.73,20.11
		c-0.16,0.38-0.08,0.81,0.22,1.1c0.19,0.18,0.44,0.28,0.69,0.28c0.14,0,0.28-0.03,0.42-0.09l8.32-3.88l8.32,3.88
		c0.37,0.17,0.81,0.1,1.1-0.19C135.27,21.52,135.35,21.08,135.19,20.7z M125.55,15.94l-6.8,3.16l6.8-15.64V15.94z"/>
</g>
</svg>
