<?xml version="1.0" encoding="utf-8"?>
<!-- Generator: Adobe Illustrator 24.3.0, SVG Export Plug-In . SVG Version: 6.00 Build 0)  -->
<svg version="1.1" id="b3df86d2-2022-47c6-a781-bb5144daf06b"
	 xmlns="http://www.w3.org/2000/svg" xmlns:xlink="http://www.w3.org/1999/xlink" x="0px" y="0px" viewBox="0 0 375.88 39.52"
	 style="enable-background:new 0 0 375.88 39.52;" xml:space="preserve">
<style type="text/css">
	.st0{fill:#E6E6E6;}
	.st1{fill:#CCCCCC;}
	.st2{fill:#6C63FF;}
	.st3{opacity:0.2;enable-background:new    ;}
	.st4{fill:#2F2E41;}
	.st5{fill:#A0616A;}
	.st6{fill:#575A89;}
	.st7{fill:#3F3D56;}
	.st8{fill:#FFFFFF;}
	.st9{fill:#B3B3B3;}
	.st10{fill:#D0CDE1;}
	.st11{fill:#F6B198;}
	.st12{fill:#FCD2C5;}
	.st13{fill:#F47382;}
	.st14{fill:#BF6D85;}
	.st15{fill:#6C5C7A;}
	.st16{fill:#375D7C;}
	.st17{fill:#CFC9C6;}
	.st18{fill:#777776;}
	.st19{fill:#BCB6B3;}
	.st20{fill:none;stroke:#BCB6B3;stroke-width:6;stroke-miterlimit:10;}
	.st21{fill:none;stroke:#BCB6B3;stroke-width:2.956;stroke-miterlimit:10;}
	.st22{fill:none;stroke:#BCB6B3;stroke-width:4;stroke-miterlimit:10;}
	.st23{fill:none;stroke:#BCB6B3;stroke-width:4;stroke-linecap:round;stroke-linejoin:round;stroke-miterlimit:10;}
	.st24{fill:none;stroke:#BCB6B3;stroke-miterlimit:10;}
	.st25{fill:url(#SVGID_1_);}
</style>
<linearGradient id="SVGID_1_" gradientUnits="userSpaceOnUse" x1="0" y1="19.7625" x2="375.8779" y2="19.7625">
	<stop  offset="0" style="stop-color:#FFAFBD"/>
	<stop  offset="1" style="stop-color:#FFC3A0"/>
</linearGradient>
<path class="st25" d="M3.81,1.14v34.9h13.65v3.1H0v-38H3.81z M39.74,0.71c8.48,0,14.79,4.24,17.51,11.53h-4.46
	c-2.12-5.06-6.58-8.21-13.05-8.21c-8.32,0-14.68,6.14-14.68,16.09c0,9.89,6.36,16.04,14.68,16.04c6.47,0,10.93-3.15,13.05-8.1h4.46
	c-2.72,7.18-9.02,11.42-17.51,11.42c-10.55,0-18.59-7.94-18.59-19.35S29.2,0.71,39.74,0.71z M98.25,39.14H78.08V0.65h19.63
	c7.67,0,12.61,3.32,12.61,10c0,4.62-2.66,7.77-6.47,8.75c4.73,1.14,7.34,4.89,7.34,9.19C111.19,35.34,106.62,39.14,98.25,39.14z
	 M94.82,10.22h-4.68v5.44h4.68c2.17,0,3.21-0.82,3.21-2.66C98.03,11.09,97,10.22,94.82,10.22z M95.64,24.03h-5.49v5.44h5.49
	c2.17,0,3.21-0.76,3.21-2.66C98.85,24.95,97.81,24.03,95.64,24.03z M115.27,0.65h12.07v38.49h-12.07V0.65z M150.23,29.14l-5.87,10
	H130.6l12.67-19.84L130.06,0.65h14.3l6.8,9.62l5.65-9.62h13.75l-12.45,19.46l13.48,19.03h-14.3L150.23,29.14z M199,33.33h-12.83
	l-1.9,5.82H171.6l14.08-38.49h13.92l14.03,38.49h-12.72L199,33.33z M192.59,13.54l-3.48,10.71h6.96L192.59,13.54z M234.29,0.27
	c10.17,0,17.07,6.09,18.65,15.17h-12.72c-1.14-2.56-3.43-4.02-6.14-4.02c-4.08,0-6.58,3.32-6.58,8.43s2.5,8.43,6.58,8.43
	c2.72,0,5-1.47,6.14-4.02h12.72c-1.58,9.08-8.48,15.17-18.65,15.17c-11.8,0-19.03-8.1-19.03-19.57
	C215.26,8.37,222.49,0.27,234.29,0.27z M276.05,39.52c-10.93,0-19.84-8.21-19.84-19.79S265.12,0,276.05,0
	c10.98,0,19.74,8.16,19.74,19.74S286.92,39.52,276.05,39.52z M276.05,28.27c4.84,0,7.5-3.42,7.5-8.54c0-5.22-2.66-8.59-7.5-8.59
	c-4.95,0-7.56,3.37-7.56,8.59C268.49,24.85,271.1,28.27,276.05,28.27z M318.08,0.65c9.68,0,14.62,5.55,14.62,12.61
	c0,5.06-2.83,9.35-8.32,11.15l8.37,14.73H319.5l-7.23-13.81h-0.05v13.81h-12.07V0.65H318.08z M316.99,10.77h-4.78v6.52h4.78
	c2.28,0,3.48-0.98,3.48-3.26C320.47,12.07,319.28,10.77,316.99,10.77z M361.25,33.33h-12.83l-1.9,5.82h-12.67l14.08-38.49h13.92
	l14.03,38.49h-12.72L361.25,33.33z M354.84,13.54l-3.48,10.71h6.96L354.84,13.54z"/>
</svg>
