<?xml version="1.0" encoding="utf-8"?>
<!-- Generator: Adobe Illustrator 24.3.0, SVG Export Plug-In . SVG Version: 6.00 Build 0)  -->
<svg version="1.1" id="Capa_1" xmlns="http://www.w3.org/2000/svg" xmlns:xlink="http://www.w3.org/1999/xlink" x="0px" y="0px"
	 viewBox="0 0 438.55 438.55" style="enable-background:new 0 0 438.55 438.55;" xml:space="preserve">
<style type="text/css">
	.st0{fill:#6C5C7A;stroke:#6C5C7A;stroke-width:11.52;stroke-miterlimit:10;}
	.st1{fill:#FFFFFF;}
</style>
<g>
	<path class="st0" d="M143.93,310.38c8.1-1.44,12.94-2.29,18.85-3.34c1.41,5.87,2.7,11.21,3.97,16.55
		c5.46,22.95,12.86,45.15,26.21,64.86c21.21,31.3,45.98,31.07,65.56-1.39c8.76-14.52,14.99-30.55,22.9-46.98
		c-69.98-23.36-130.11-58.77-183.37-108.34c-17.53,20.49-35,40.44-38.07,68.41c-1.61,14.68,5.76,25.53,20.88,29.07
		c11.12,2.6,22.88,2.51,34.37,3.44c3.68,0.3,7.4,0.05,12.05,0.05c0.53,5.43,1.03,10.56,1.63,16.69
		c-23.81,2.21-46.47,2.95-67.05-9.65c-15.38-9.42-22.19-26.62-18.99-44.64c4.83-27.24,20.27-48.74,37.37-69.35
		c1.59-1.92,3.26-3.76,5.46-6.29c-5.21-6.55-10.53-12.95-15.55-19.58c-12.77-16.85-23.31-34.75-27.16-55.99
		c-3.92-21.64,6.17-40.86,26.49-49.46c17.23-7.29,35.35-7.13,53.57-6.34c6.27,0.27,5.83,4.38,5.36,8.55
		c-0.49,4.36,0.92,9.94-6.77,9.6c-8.11-0.35-16.27-0.46-24.37,0.01c-5.57,0.32-11.25,1.23-16.58,2.88
		c-15.92,4.92-22.95,15.75-20.29,32.16c4.24,26.21,20.44,45.57,37.66,65.08c53.15-48.86,112.96-84.84,181.57-107.53
		c-7.69-24.84-16.52-48.05-36.14-65.16c-11.33-9.87-25.72-10.12-36.48,0.91c-9.23,9.46-17.83,20.46-23.38,32.34
		c-7.48,16.01-12.44,33.31-17.21,50.42c-4.34,15.55-3.59,15.75-20.41,9.94c7.05-34.39,15.84-68.23,39.12-95.91
		c26.73-31.77,61.11-30.15,84.13,4.68c10.23,15.47,17.45,33.06,24.9,50.18c2.71,6.21,4.95,7.85,11.48,6.46
		c22.14-4.72,44.38-7.57,66.9-1.71c28.12,7.31,41.42,27.65,36.37,56.25c-3.42,19.37-11.18,35-25.05,49.63
		c-3.83-3.33-7.7-6.7-12.33-10.72c2.52-3.63,5.38-6.6,6.88-10.15c4.82-11.37,10.98-22.62,13.21-34.55
		c3.4-18.18-5.1-29.16-23.33-33.5c-22.18-5.29-44-1.81-66.27,3.26c15.35,71.96,15.56,143.26-0.11,216
		c24.96,5.14,49.64,10.13,74.39,0.24c11.36-4.54,16.44-13.87,15.79-26.22c-1.03-19.8-8.86-37.14-20.64-52.48
		c-9.85-12.83-21.21-24.51-32.63-37.53c2.74-3.32,6.03-7.3,9.94-12.02c18.56,15.17,34.51,31.84,45.18,52.51
		c6.5,12.6,11.77,26.32,14.76,40.14c5.89,27.28-8.01,47.81-35.08,55.21c-22.42,6.13-44.67,3.29-66.92-1.03
		c-2.99-0.58-6-1.1-8.22-1.51c-7.47,16.2-13.87,31.81-21.8,46.59c-4.5,8.4-10.81,16.15-17.51,23.01
		c-19.31,19.76-45.79,21.22-64.99,1.42c-11.92-12.29-22.02-27.39-29.18-42.96C156.09,353.24,151.07,332.1,143.93,310.38z
		 M284.61,115.95c-66.23,21.98-123.5,56.02-174.55,103.36c51.55,46.92,108.38,81.69,174.53,102.95
		C300,252.81,299.87,185.15,284.61,115.95z"/>
	<path class="st1" d="M225.79,262.9c-24.3-0.13-43.95-20.17-43.56-44.42c0.39-23.85,20.14-43.16,44.01-43.04
		c24.39,0.12,43.81,19.96,43.49,44.42C269.43,243.71,249.71,263.03,225.79,262.9z M252.24,218.9
		c-0.18-14.13-12.66-26.22-26.74-25.91c-14.35,0.32-25.99,12.56-25.59,26.91c0.38,13.83,12.35,25.46,26.17,25.44
		C240.31,245.32,252.42,233.08,252.24,218.9z"/>
</g>
</svg>
