<?xml version="1.0" encoding="utf-8"?>
<!-- Generator: Adobe Illustrator 24.3.0, SVG Export Plug-In . SVG Version: 6.00 Build 0)  -->
<svg version="1.1" id="Capa_1" xmlns="http://www.w3.org/2000/svg" xmlns:xlink="http://www.w3.org/1999/xlink" x="0px" y="0px"
	 viewBox="0 0 438.55 438.55" style="enable-background:new 0 0 438.55 438.55;" xml:space="preserve">
<style type="text/css">
	.st0{fill:#6C5C7A;}
	.st1{fill:#FFFFFF;}
</style>
<g>
	<path class="st0" d="M362.53,333.14c47.84,47.75,17.37,18.56,64.73,65.94c4.97,4.97,13.7,10.29,8.59,17.88
		c-5.74,8.52-14.37,15.57-23.03,21.33c-2.16,1.44-10.23-3.52-13.94-7.19c-45.21-44.69-12.2-13.18-57.16-58.12
		c-2.97-2.97-5.73-6.14-9.17-9.84c-57.09,42.43-119.51,56.66-187.74,36.23c-47.93-14.35-85.96-42.98-112.85-85.5
		C-22.48,227.78-5.98,116.4,70.83,50.49c76.24-65.42,190.64-65.17,265.91,0.14C412.29,116.19,436.56,236.57,362.53,333.14z
		 M43.27,205.04c-0.02,88.51,72.38,160.99,160.67,160.84c88.23-0.16,161.24-73.15,161.05-161.02
		c-0.19-88.42-72.58-160.36-161.26-160.25C114.79,44.71,43.29,116.2,43.27,205.04z"/>
</g>
<g>
	<path class="st1" d="M268.15,265.61h-34.51l26.78-60.53l-26.78-60.22c7.59,0,26.93,0,34.51,0l26.78,60.22L268.15,265.61z"/>
</g>
<g>
	<path class="st1" d="M137.76,144.87h34.51l-26.78,60.53l26.78,60.22c-7.59,0-26.93,0-34.51,0l-26.78-60.22L137.76,144.87z"/>
</g>
</svg>
