<?xml version="1.0" encoding="utf-8"?>
<!-- Generator: Adobe Illustrator 24.3.0, SVG Export Plug-In . SVG Version: 6.00 Build 0)  -->
<svg version="1.1" id="Capa_1" xmlns="http://www.w3.org/2000/svg" xmlns:xlink="http://www.w3.org/1999/xlink" x="0px" y="0px"
	 viewBox="0 0 1176.87 438.55" style="enable-background:new 0 0 1176.87 438.55;" xml:space="preserve">
<style type="text/css">
	.st0{fill:#6C5C7A;}
	.st1{fill:#FFFFFF;}
	.st2{fill:#6C5C7A;stroke:#6C5C7A;stroke-width:10;stroke-miterlimit:10;}
</style>
<g>
	<path class="st0" d="M364.53,333.14c47.84,47.75,17.37,18.56,64.73,65.94c4.97,4.97,13.7,10.29,8.59,17.88
		c-5.74,8.52-14.37,15.57-23.03,21.33c-2.16,1.44-10.23-3.52-13.94-7.19c-45.21-44.69-12.2-13.18-57.16-58.12
		c-2.97-2.97-5.73-6.14-9.17-9.84c-57.09,42.43-119.51,56.66-187.74,36.23c-47.93-14.35-85.96-42.98-112.85-85.5
		C-20.48,227.78-3.98,116.4,72.83,50.49c76.24-65.42,190.64-65.17,265.91,0.14C414.29,116.19,438.56,236.57,364.53,333.14z
		 M45.27,205.04c-0.02,88.51,72.38,160.99,160.67,160.84c88.23-0.16,161.24-73.15,161.05-161.02
		C366.8,116.44,294.41,44.5,205.73,44.61C116.79,44.71,45.29,116.2,45.27,205.04z"/>
</g>
<g>
	<path class="st1" d="M270.15,265.61h-34.51l26.78-60.53l-26.78-60.22c7.59,0,26.93,0,34.51,0l26.78,60.22L270.15,265.61z"/>
</g>
<g>
	<path class="st1" d="M139.76,144.87h34.51l-26.78,60.53l26.78,60.22c-7.59,0-26.93,0-34.51,0l-26.78-60.22L139.76,144.87z"/>
</g>
<g>
	<g>
		<path class="st2" d="M744.86,265.38h-45.75c-7.86,0-14.24,6.37-14.24,14.24v137.26c0,7.86,6.37,14.24,14.24,14.24h123.02h119.98
			h123.02c7.86,0,14.24-6.37,14.24-14.24V293.85h31.51c33.08,0,59.99-26.91,59.99-59.99s-26.91-59.99-59.99-59.99h-31.51V50.85
			c0-7.86-6.37-14.24-14.24-14.24H927.87c-7.86,0-14.24,6.37-14.24,14.24V96.6c0,17.38-14.14,31.51-31.51,31.51
			s-31.51-14.14-31.51-31.51V50.85c0-7.86-6.37-14.24-14.24-14.24H699.11c-7.86,0-14.24,6.37-14.24,14.24v137.26
			c0,7.86,6.37,14.24,14.24,14.24h45.75c17.38,0,31.52,14.14,31.52,31.51C776.37,251.24,762.24,265.38,744.86,265.38z
			 M744.86,173.87h-31.51V65.09h108.78V96.6c0,33.08,26.91,59.99,59.99,59.99c33.08,0,59.99-26.91,59.99-59.99V65.09h108.78v123.02
			c0,7.86,6.37,14.24,14.24,14.24h45.75c17.38,0,31.51,14.14,31.51,31.51c0,17.38-14.14,31.51-31.51,31.51h-45.75
			c-7.86,0-14.24,6.37-14.24,14.24v123.02H713.35V293.85h31.51c33.08,0,59.99-26.91,59.99-59.99S777.94,173.87,744.86,173.87z"/>
	</g>
</g>
</svg>
