<?xml version="1.0" encoding="utf-8"?>
<!-- Generator: Adobe Illustrator 24.3.0, SVG Export Plug-In . SVG Version: 6.00 Build 0)  -->
<svg version="1.1" id="Capa_1" xmlns="http://www.w3.org/2000/svg" xmlns:xlink="http://www.w3.org/1999/xlink" x="0px" y="0px"
	 viewBox="0 0 438.55 438.55" style="enable-background:new 0 0 438.55 438.55;" xml:space="preserve">
<style type="text/css">
	.st0{fill:#6C5C7A;}
	.st1{fill:#FFFFFF;}
	.st2{fill:#FEFEFE;}
</style>
<g>
	<path class="st0" d="M218.49,76.43c51.88,0,103.76,0.07,155.62-0.11c4.91-0.02,6.62,0.8,6.11,6.2
		c-4.3,45.27-8.35,90.55-12.41,135.84c-3.28,36.69-6.45,73.38-9.69,110.06c-2.26,25.61-4.68,51.21-6.69,76.84
		c-0.36,4.61-3.39,4.54-6.15,5.16c-25.79,5.87-51.61,11.63-77.41,17.45c-14.76,3.33-29.54,6.68-44.28,10.11
		c-3.45,0.8-6.77,0.74-10.21-0.03c-40.37-9.17-80.73-18.33-121.14-27.3c-4.66-1.04-6.22-2.95-6.63-7.85
		c-4.38-52-9.06-103.96-13.7-155.93c-3.01-33.82-6.06-67.64-9.1-101.44c-1.91-21.19-3.62-42.42-5.95-63.57
		c-0.58-5.24,1.31-5.5,5.41-5.49C114.35,76.46,166.43,76.43,218.49,76.43z M221.07,132.98c0,0.03,0,0.07,0,0.09
		c-4.22,0-8.45,0-12.67,0c-27.67-0.01-55.35,0.09-83.02-0.14c-4.82-0.04-5.71,1.28-5.07,5.88c1.25,9.11,2.16,18.31,2.41,27.49
		c0.15,5.43,1.68,6.97,7.26,6.95c47.27-0.21,94.55,0.04,141.82-0.14c5.22-0.02,5.98,1.57,5.47,6.22
		c-1.68,15.43-3.22,30.88-4.29,46.37c-0.36,5.18-1.94,6.69-7.18,6.65c-30.17-0.23-60.35,0-90.52-0.14c-4.38-0.02-6.12,0.94-5.95,5.7
		c0.36,9.59,0.29,19.21-0.01,28.8c-0.14,4.54,1.33,5.76,5.86,5.73c29.41-0.19,58.81,0.01,88.22-0.15c4.11-0.02,5.39,1.1,4.99,5.17
		c-1.62,16.23-3.08,32.47-4.42,48.71c-0.23,2.77-1.18,3.83-3.93,4.38c-10.15,2.02-20.22,4.42-30.35,6.53
		c-5.04,1.05-10.06,3.03-15.3,2.02c-8.28-1.59-16.42-4.4-24.76-5.14c-13-1.17-19.8-6.66-18.05-20.35c0.32-2.48-0.85-3.81-3.49-4.2
		c-9.87-1.46-19.71-3.06-29.55-4.69c-3.03-0.5-4.05,0.25-3.69,3.57c1.63,15.26,3.13,30.53,4.38,45.83c0.33,4.06,1.78,6.01,5.86,6.9
		c18.91,4.09,37.74,8.61,56.67,12.61c6.47,1.38,12.83,4.37,19.73,2.79c25.42-5.78,50.82-11.69,76.27-17.35
		c3.35-0.74,3.66-2.7,3.88-5.31c2.74-30.57,5.51-61.13,8.29-91.7c2.14-23.49,4.32-46.98,6.48-70.46c1.64-17.77,3.3-35.53,4.89-53.3
		c0.25-2.8,0.98-5.46-3.94-5.41C285.26,133.1,253.16,132.98,221.07,132.98z"/>
	<path class="st1" d="M257.12,48.19c-4.93-0.02-9.08-0.94-12.75-3.14c-1.95-1.18-5.66-1.72-3.16-5.78c2.06-3.36,4-5.67,8.09-2.68
		c2.36,1.72,5.05,2.85,8.06,2.47c2.46-0.32,4.4-1.45,4.9-4.12c0.53-2.82-1.12-4.35-3.44-5.26c-2.5-0.97-5.12-1.62-7.62-2.58
		c-7.19-2.76-10-6.89-9.58-13.88c0.37-6.21,4.75-11.28,11.48-12.67c5.37-1.1,10.69-0.49,15.78,1.79c2.75,1.23,3.87,2.83,2.27,5.83
		c-1.38,2.59-2.63,4.75-6.14,3.12c-2.75-1.28-5.49-2.75-8.8-1.91c-2.04,0.52-3.62,1.31-3.9,3.57c-0.24,2.04,1.11,3.31,2.71,4.02
		c2.62,1.16,5.4,1.95,8.08,2.99c7.94,3.04,10.69,7.15,9.88,14.62c-0.76,6.96-5.83,12.12-13.07,13.28
		C258.78,48.01,257.64,48.12,257.12,48.19z"/>
	<path class="st1" d="M186.36,48.23c-13.07-0.12-22.37-9.48-22.93-23.08c-0.53-12.87,8.24-23.54,20.59-24.85
		c6-0.63,11.93-0.27,17.19,3.15c1.47,0.96,3.97,1.86,2.38,4.26c-1.48,2.23-2.61,5.57-6.47,4.38c-2.18-0.68-4.23-1.92-6.45-2.3
		c-6.38-1.1-11.2,1.4-13.75,6.8c-3.06,6.45-1.82,14.75,2.85,19.24c3.69,3.54,9.82,4.07,15.36,0.46c4.15-2.71,5.42,0.52,7.38,2.56
		c2.96,3.09-0.91,3.93-2.17,5.12C196.45,47.6,191.39,48.01,186.36,48.23z"/>
	<path class="st1" d="M224.16,0.14c2.71-0.24,5.74,0.43,8.52,1.71c2.31,1.07,6.1,1.4,3.82,5.86c-1.72,3.38-3.47,5.45-7.48,3.02
		c-2.13-1.29-4.52-1.95-7.14-1.42c-2.04,0.41-3.69,1.19-4.14,3.36c-0.48,2.31,1.04,3.66,2.85,4.43c2.8,1.2,5.76,2.03,8.6,3.15
		c7.13,2.82,9.84,6.99,9.21,14c-0.56,6.17-5.59,12.1-11.72,13.35c-6.63,1.34-12.95,0.33-18.7-3.44c-1.86-1.21-3.6-2.36-1.42-4.87
		c1.76-2.02,2.5-5.75,6.46-3.39c2.31,1.37,4.66,2.83,7.34,3.09c3.16,0.31,6.35-0.15,7.22-3.97c0.8-3.45-1.82-4.68-4.42-5.66
		c-1.96-0.74-3.99-1.31-5.96-2.03c-8.22-3-11.37-7.88-10.11-15.57c1.11-6.8,6.58-11.24,14.32-11.61
		C222.19,0.11,222.96,0.14,224.16,0.14z"/>
	<path class="st2" d="M221.07,132.98c32.09,0,64.19,0.12,96.28-0.12c4.92-0.03,4.19,2.61,3.94,5.41
		c-1.59,17.77-3.25,35.53-4.89,53.3c-2.16,23.48-4.34,46.98-6.48,70.46c-2.78,30.57-5.54,61.13-8.29,91.7
		c-0.23,2.61-0.55,4.57-3.88,5.31c-25.45,5.66-50.84,11.57-76.27,17.35c-6.9,1.57-13.25-1.42-19.73-2.79
		c-18.93-4-37.76-8.52-56.67-12.61c-4.07-0.88-5.52-2.84-5.86-6.9c-1.24-15.3-2.75-30.58-4.38-45.83c-0.35-3.33,0.65-4.07,3.69-3.57
		c9.84,1.64,19.69,3.23,29.55,4.69c2.65,0.39,3.81,1.74,3.49,4.2c-1.74,13.71,5.05,19.2,18.05,20.35
		c8.34,0.74,16.48,3.55,24.76,5.14c5.24,1.01,10.26-0.97,15.3-2.02c10.13-2.11,20.2-4.51,30.35-6.53c2.75-0.55,3.7-1.59,3.93-4.38
		c1.34-16.25,2.8-32.49,4.42-48.71c0.4-4.07-0.87-5.19-4.99-5.17c-29.41,0.16-58.81-0.03-88.22,0.15c-4.53,0.03-6-1.19-5.86-5.73
		c0.31-9.59,0.36-19.22,0.01-28.8c-0.17-4.76,1.58-5.72,5.95-5.7c30.17,0.14,60.35-0.09,90.52,0.14c5.24,0.04,6.82-1.46,7.18-6.65
		c1.06-15.49,2.61-30.94,4.29-46.37c0.5-4.64-0.25-6.23-5.47-6.22c-47.27,0.19-94.55-0.07-141.82,0.14
		c-5.58,0.02-7.1-1.52-7.26-6.95c-0.25-9.19-1.17-18.38-2.41-27.49c-0.63-4.61,0.25-5.93,5.07-5.88
		c27.67,0.23,55.35,0.13,83.02,0.14c4.22,0,8.45,0,12.67,0C221.07,133.05,221.07,133.01,221.07,132.98z"/>
</g>
</svg>
