<?xml version="1.0" encoding="utf-8"?>
<!-- Generator: Adobe Illustrator 24.3.0, SVG Export Plug-In . SVG Version: 6.00 Build 0)  -->
<svg version="1.1" id="Capa_1" xmlns="http://www.w3.org/2000/svg" xmlns:xlink="http://www.w3.org/1999/xlink" x="0px" y="0px"
	 viewBox="0 0 438.55 438.55" style="enable-background:new 0 0 438.55 438.55;" xml:space="preserve">
<style type="text/css">
	.st0{fill:#6C5C7A;}
	.st1{fill:#FFFFFF;}
</style>
<g>
	<path class="st0" d="M432.68,205.81c-22.26-26.65-44.65-54.08-66.3-80.61c-10.1-12.38-20.2-24.75-30.33-37.1
		c-1.71-2.09-3.57-3.85-5.71-5.9c-1.06-1.01-2.21-2.11-3.47-3.36c-1.37-1.37-3.37-1.24-4.62,0.3L219.35,205.9
		c-0.38-0.44-0.76-0.88-1.13-1.31c-2.31-2.67-4.3-4.97-6.27-7.38c-7.23-8.83-14.46-17.64-21.7-26.46
		c-21.83-26.59-44.39-54.08-66.3-81.46c-3.13-3.91-6.94-7.9-11.52-7.9c-3.6,0-7.05,2.32-11.21,7.52
		C71.8,125.73,40.81,163.63,6.48,204.78C3.27,208.62,0,213.32,0,219.02c0,4.46,1.9,8.72,6.16,13.82
		c35.62,42.62,66.61,80.53,94.71,115.88c4.27,5.37,7.83,7.77,11.52,7.78c0.01,0,0.01,0,0.02,0c4.4,0,8.01-3.38,12.07-8.46
		c22.37-27.98,45.43-56.07,67.73-83.23c6.75-8.23,13.51-16.45,20.25-24.69c1.91-2.33,3.96-4.59,6.14-6.99
		c0.32-0.35,0.64-0.71,0.97-1.07c7.84,9.6,15.66,19.14,23.44,28.65c24.81,30.3,48.24,58.92,71.96,88.49c2.96,3.68,6.57,7.45,11,7.45
		h0c4.45,0,8.12-3.87,10.82-7.24c30.23-37.72,61.49-75.96,95.57-116.91c3.21-3.86,6.19-8.18,6.18-13.55
		C438.55,214.72,436.74,210.67,432.68,205.81z M416.38,218.75l-82.33,100.52V118.03L416.38,218.75z M318.04,117.28v200.98
		l-82.07-100.46L318.04,117.28z M111.28,107.63l91.41,109.64l-91.41,113.32L22.05,219.06L111.28,107.63z"/>
	<polygon class="st1" points="202.69,217.27 111.28,330.59 111.28,107.63 	"/>
</g>
</svg>
