<?xml version="1.0" encoding="utf-8"?>
<!-- Generator: Adobe Illustrator 24.3.0, SVG Export Plug-In . SVG Version: 6.00 Build 0)  -->
<svg version="1.1" id="Capa_1" xmlns="http://www.w3.org/2000/svg" xmlns:xlink="http://www.w3.org/1999/xlink" x="0px" y="0px"
	 viewBox="0 0 1134.93 438.55" style="enable-background:new 0 0 1134.93 438.55;" xml:space="preserve">
<style type="text/css">
	.st0{fill:#6C5C7A;}
	.st1{fill:#FFFFFF;}
</style>
<g>
	<path class="st0" d="M216.37,177.1c0,40.8,0,80.48,0,122.5c-26.05-1.09-51.93,0.31-76.89-3.86c-29.04-4.85-47.84-34.91-44.88-64.65
		c2.92-29.25,28.05-53.1,57.7-53.87C173.46,176.66,194.65,177.1,216.37,177.1z"/>
	<path class="st0" d="M216.37,37.24c0,40.8,0,80.48,0,122.5c-26.05-1.09-51.93,0.31-76.89-3.86c-29.04-4.85-47.84-34.91-44.88-64.65
		c2.92-29.25,28.05-53.1,57.7-53.87C173.46,36.8,194.65,37.24,216.37,37.24z"/>
	<path class="st0" d="M215.37,316.85c0,24.45,2.71,49.34-0.68,73.37c-4.32,30.65-34.35,49.8-66.04,46.6
		c-28.99-2.93-51.94-28.17-53.13-58.42c-1.19-30.1,20.26-57.88,50.58-61.07C169.01,314.91,192.37,316.85,215.37,316.85z"/>
	<path class="st0" d="M282.9,299.4c-33.57-0.42-60.52-27.82-60.07-61.07c0.46-33.75,28.68-61.16,62.15-60.36
		c33.46,0.8,59.75,28.27,59.27,61.91C343.77,273.53,316.67,299.82,282.9,299.4z"/>
	<path class="st1" d="M216.39,159.56c0-40.8,0-80.48,0-122.5c26.05,1.09,51.93-0.31,76.89,3.86c29.04,4.85,47.84,34.91,44.88,64.65
		c-2.92,29.25-28.05,53.1-57.7,53.87C259.31,160.01,238.12,159.56,216.39,159.56z"/>
</g>
<g>
	<path class="st0" d="M512.38,213.95c0-4.4,0-8.81,0-13.21c0.18-0.67,0.36-1.33,0.54-2c1.93-7.11,3.1-14.53,5.92-21.27
		c8.22-19.6,22.28-34.71,38.8-47.65c21.11-16.54,44.73-28.7,69.3-39.09C676,69.98,727.44,59.56,780.41,56.1
		c41.73-2.73,82.96,1.33,123.82,9.79c24.81,5.14,48.99,12.49,72.78,21.13c2.25,0.82,4.07,0.71,6.22-0.35
		c21.2-10.36,42.44-20.62,63.67-30.89c9.63-4.66,19.25-9.32,28.93-13.89c5.7-2.69,11.59,0.71,12.17,6.97
		c0.28,2.98,0.5,5.99,0.51,8.98c0.1,32.52,0.25,65.05,0.15,97.57c-0.02,5.85,0.84,11.14,3.82,16.27
		c8.45,14.54,9.95,30.44,8.13,46.76c-1.1,9.84-5.26,18.79-9.1,27.81c-0.85,1.99-1.68,4.12-1.85,6.24
		c-0.44,5.38-0.64,10.78-0.7,16.18c-0.36,32.72-0.64,65.44-1,98.16c-0.06,5.07-3.15,8.18-8.19,8.1c-1.92-0.03-3.96-0.68-5.72-1.51
		c-30.09-14.22-60.17-28.49-90.2-42.84c-2.44-1.17-4.52-1.28-7.09-0.45c-20.54,6.66-41.2,12.94-62.49,16.82
		c-8.54,1.56-17.09,3.06-25.74,4.61c-0.07,1.11-0.14,2.1-0.18,3.09c-0.52,11.59-0.87,23.19-1.61,34.77c-0.33,5.1-1.68,6.1-6.85,6.4
		c-5.2,0.3-10.4,0.56-15.6,0.57c-43.35,0.08-86.71,0.11-130.06,0.15c-3.92,0-6.41-1.89-7.31-5.83c-0.42-1.84-0.62-3.76-0.64-5.65
		c-0.11-9.81-0.12-19.61-0.17-29.42c-0.01-1.09,0-2.18,0-3.41c-8.05-1.48-15.91-2.86-23.75-4.39c-29.4-5.74-58.28-13.29-85.83-25.28
		c-25.19-10.96-48.85-24.42-68.89-43.53c-14.71-14.02-26.29-30.14-32.04-49.9C514.17,224.17,513.43,219.02,512.38,213.95z
		 M545.74,205.98c-0.06,0.39-0.12,0.79-0.19,1.18c16.32,5.66,32.56,11.59,48.99,16.93c36.48,11.85,73.7,20.86,111.68,26.22
		c20.69,2.92,41.51,5.59,62.35,6.54c28.89,1.31,57.85,1.07,86.78,1.15c32.45,0.09,64.84-0.97,97.11-4.87
		c41.04-4.97,80.82-14.6,118.83-31.05c2.99-1.29,5.93-2.69,8.89-4.03c0.02-0.41,0.04-0.81,0.06-1.22
		c-74.95-37.08-154.74-56.47-237.88-61.93C739.54,148.15,640.52,165.34,545.74,205.98z M1081.59,195.88
		c-0.37-1.63-0.6-3.15-1.06-4.61c-4.01-12.7-11.49-23.23-20.69-32.63c-15.08-15.4-32.85-27.11-51.93-36.82
		c-52.37-26.67-108.2-41.24-166.59-45.98c-36.71-2.98-73.33-2.2-109.76,4.6c-38.49,7.19-75.96,17.46-111.59,33.86
		c-19.77,9.1-38.78,19.57-55.26,34.01c-12.28,10.76-23.19,22.67-29.61,38.03c-0.44,1.05-0.83,2.11-1.52,3.89
		C717.4,114.01,899.67,116.73,1081.59,195.88z M534,222.36c-0.27,0.2-0.54,0.4-0.81,0.6c0.56,1.97,0.99,3.98,1.7,5.89
		c5.76,15.52,16.15,27.74,28.08,38.76c20.98,19.38,45.73,32.52,72.26,42.4c45.65,17.01,93.01,25.99,141.61,27.54
		c24.69,0.79,49.46,0.29,74.14-0.75c21.9-0.92,43.52-4.9,64.98-9.39c30.33-6.36,59.85-15.22,87.8-28.81
		c20.93-10.18,40.32-22.61,56.24-39.85c3.52-3.81,6.55-8.06,9.7-12.19c0.46-0.6,0.32-1.64,0.46-2.48c-0.85-0.06-1.8-0.38-2.55-0.13
		c-3.31,1.11-6.57,2.39-9.85,3.59c-47.15,17.14-96,25.42-145.95,27.55c-25.4,1.09-50.83,1.5-76.25,1.9
		c-52.05,0.82-103.81-2.06-155.08-11.88c-44.88-8.6-88.81-20.43-131.45-36.93C544.02,226.25,539.01,224.3,534,222.36z
		 M869.79,354.45c-42.07,2.25-83.84,2.45-125.78,0.13c0,7.83,0,15.48,0,23.27c42.02,0,83.86,0,125.78,0
		C869.79,369.92,869.79,362.25,869.79,354.45z M1069.64,141.54c0.26-0.2,0.52-0.39,0.78-0.59c0-25.01,0-50.02,0-75.74
		c-22.95,11.02-45.15,21.69-67.87,32.6C1027.04,109.87,1049.88,123.33,1069.64,141.54z M1070.44,351.06c0-25.49,0-50.01,0-74.53
		c-0.3-0.18-0.61-0.37-0.91-0.55c-19.3,18.15-41.68,31.66-65.64,43.73C1026.26,330.24,1048.03,340.5,1070.44,351.06z"/>
	<path class="st1" d="M869.79,354.45c0,7.8,0,15.47,0,23.39c-41.92,0-83.76,0-125.78,0c0-7.79,0-15.44,0-23.27
		C785.95,356.89,827.72,356.69,869.79,354.45z"/>
</g>
</svg>
