<?xml version="1.0" encoding="utf-8"?>
<!-- Generator: Adobe Illustrator 24.3.0, SVG Export Plug-In . SVG Version: 6.00 Build 0)  -->
<svg version="1.1" id="Capa_1" xmlns="http://www.w3.org/2000/svg" xmlns:xlink="http://www.w3.org/1999/xlink" x="0px" y="0px"
	 viewBox="0 0 438.55 438.55" style="enable-background:new 0 0 438.55 438.55;" xml:space="preserve">
<style type="text/css">
	.st0{fill:#6C5C7A;}
</style>
<g>
	<path class="st0" d="M409.13,114.57c-19.61-33.6-46.2-60.19-79.8-79.8c-33.6-19.61-70.28-29.41-110.06-29.41
		c-39.78,0-76.47,9.8-110.06,29.41c-33.6,19.6-60.19,46.2-79.8,79.8C9.8,148.17,0,184.85,0,224.63c0,47.78,13.94,90.74,41.83,128.91
		c27.88,38.16,63.91,64.57,108.06,79.23c5.14,0.95,8.94,0.28,11.42-2c2.48-2.28,3.71-5.14,3.71-8.56c0-0.57-0.05-5.71-0.14-15.42
		c-0.1-9.71-0.14-18.18-0.14-25.41l-6.57,1.14c-4.19,0.77-9.47,1.09-15.85,1c-6.37-0.09-12.99-0.76-19.84-2
		c-6.85-1.23-13.23-4.09-19.13-8.56c-5.9-4.47-10.08-10.33-12.56-17.56l-2.86-6.57c-1.9-4.37-4.9-9.23-8.99-14.56
		c-4.09-5.33-8.23-8.95-12.42-10.85l-2-1.43c-1.33-0.95-2.57-2.1-3.71-3.43c-1.14-1.33-2-2.66-2.57-4c-0.57-1.33-0.1-2.43,1.43-3.29
		s4.28-1.28,8.28-1.28l5.71,0.85c3.81,0.76,8.52,3.04,14.13,6.85c5.61,3.81,10.23,8.75,13.85,14.84
		c4.38,7.81,9.66,13.75,15.85,17.85c6.18,4.09,12.42,6.14,18.7,6.14s11.7-0.48,16.27-1.42c4.57-0.95,8.85-2.38,12.85-4.29
		c1.71-12.76,6.38-22.56,13.99-29.41c-10.85-1.14-20.6-2.86-29.26-5.14c-8.66-2.29-17.6-6-26.83-11.14
		c-9.24-5.14-16.9-11.52-22.99-19.13c-6.09-7.61-11.09-17.61-14.99-29.98c-3.9-12.37-5.85-26.65-5.85-42.83
		c0-23.04,7.52-42.64,22.56-58.82c-7.04-17.32-6.38-36.73,2-58.24c5.52-1.71,13.71-0.43,24.55,3.85
		c10.85,4.28,18.79,7.95,23.84,10.99c5.05,3.04,9.09,5.62,12.13,7.71c17.71-4.95,35.98-7.42,54.82-7.42s37.12,2.47,54.82,7.42
		l10.85-6.85c7.42-4.57,16.18-8.76,26.26-12.57c10.09-3.81,17.8-4.85,23.13-3.14c8.56,21.51,9.33,40.92,2.28,58.24
		c15.04,16.18,22.56,35.79,22.56,58.82c0,16.18-1.96,30.5-5.85,42.97c-3.9,12.47-8.94,22.46-15.12,29.98
		c-6.19,7.52-13.9,13.85-23.13,18.99c-9.23,5.14-18.18,8.85-26.84,11.14c-8.66,2.29-18.42,4-29.26,5.15
		c9.89,8.56,14.84,22.08,14.84,40.54v60.24c0,3.42,1.19,6.28,3.57,8.56c2.38,2.28,6.14,2.95,11.28,1.99
		c44.16-14.65,80.18-41.06,108.07-79.23c27.88-38.16,41.83-81.13,41.83-128.91C438.54,184.85,428.73,148.17,409.13,114.57z"/>
</g>
</svg>
