<?xml version="1.0" encoding="utf-8"?>
<!-- Generator: Adobe Illustrator 24.3.0, SVG Export Plug-In . SVG Version: 6.00 Build 0)  -->
<svg version="1.1" id="b3df86d2-2022-47c6-a781-bb5144daf06b"
	 xmlns="http://www.w3.org/2000/svg" xmlns:xlink="http://www.w3.org/1999/xlink" x="0px" y="0px" viewBox="0 0 297.73 386.52"
	 style="enable-background:new 0 0 297.73 386.52;" xml:space="preserve">
<style type="text/css">
	.st0{fill:url(#SVGID_1_);}
	.st1{fill:#F4D4D4;}
	.st2{fill:url(#SVGID_2_);}
	.st3{fill:#FCE8E3;}
	.st4{fill:#6C63FF;}
	.st5{fill:#6C5C7A;}
	.st6{fill:#BF6D85;enable-background:new    ;}
	.st7{fill:#F6B198;}
	.st8{fill:#375D7C;}
	.st9{fill:#F47382;}
	.st10{fill:#FFFFFF;}
	.st11{fill:#B3B3B3;}
	.st12{fill:#D0CDE1;}
	.st13{opacity:0.2;enable-background:new    ;}
	.st14{fill:#FCD2C5;}
	.st15{fill:none;stroke:#FCD2C5;stroke-width:0.7884;stroke-miterlimit:10;}
	.st16{fill:#FFFBD5;}
	.st17{fill:#FFAFBD;}
	.st18{fill:#FFC3A0;}
	.st19{fill:#FEBCAD;}
	.st20{fill:#BFA5A5;}
	.st21{fill:#2F2E41;}
	.st22{fill:none;stroke:#2F2E41;stroke-miterlimit:10;}
	.st23{fill:#BF6D85;}
	.st24{fill:none;stroke:#FFFFFF;stroke-width:3;stroke-linecap:round;stroke-linejoin:round;stroke-miterlimit:10;}
</style>
<path class="st1" d="M226.7,68.13c0,3.74,3.51,6.27,7.85,5.66c0.46-0.07,0.92-0.17,1.38-0.3l12.79,10.47l2.24-7.07l-8.69-12.64
	c-1.04-3.5-5.32-5.12-9.56-3.62C229.16,61.89,226.68,64.99,226.7,68.13z"/>
<path class="st20" d="M191.21,113.41c0,0,21-4.84,32.55,4.03c11.55,8.87-14.7,29.03-14.7,29.03L191.21,113.41z"/>
<path class="st1" d="M169.5,229.13c1.59-4.19-0.52-8.87-4.7-10.46c-0.45-0.17-0.91-0.3-1.38-0.39l-4.24-28.51l-11.15,10l5.74,25.54
	c-0.54,4.47,2.65,8.53,7.12,9.07C164.62,234.83,168.18,232.66,169.5,229.13z"/>
<polygon class="st1" points="213.46,377.11 203.59,376.46 201.42,338.09 215.98,339.06 "/>
<path class="st8" d="M196.32,373.39h19.07l0,0v12.01l0,0h-31.08l0,0l0,0C184.32,378.77,189.69,373.39,196.32,373.39L196.32,373.39z"
	/>
<polygon class="st1" points="196.4,363.45 187.13,366.88 169.51,332.73 183.2,327.68 "/>
<path class="st8" d="M179.52,366.67l17.89-6.6l0,0l4.16,11.26l0,0l-29.15,10.76l0,0l0,0C170.12,375.87,173.3,368.97,179.52,366.67
	L179.52,366.67z"/>
<path class="st9" d="M169.43,216.06c0,0-9.99,5.38-6.92,26.9l3.07,81.47l16.98,37.14l14.6-3.84l-9.3-30.22l12.3-53.03l1.61,96.32
	l13.83,2.31l19.91-160.11l-25.36-11.53L169.43,216.06z"/>
<circle class="st1" cx="205.15" cy="84.45" r="19.81"/>
<path class="st10" d="M170.18,218.43c-1.34,0.08-2.69-0.07-3.98-0.46l-0.28-0.12l0.04-0.3c0.05-0.39,5.33-39.19,2.33-47.46
	c-2.58-7.1-7.89-31.07-9.46-38.25c-0.37-1.68,0.4-3.41,1.91-4.24l28.66-16.06c2.45-1.38,5.55-0.58,7.02,1.81l7.29,11.77l11.37-11.37
	c1.8-1.8,4.63-2.05,6.71-0.59l21.77,5.38c2.13,1.48,5.16,15.65,4.18,18.05c-4.57,11.31-14.88,41.39-11.81,76.38l0.05,0.57
	l-0.55-0.14c-0.21-0.05-20.9-5.28-42.06,0.77C181.06,217.66,174,218.43,170.18,218.43z"/>
<path class="st10" d="M161.73,128.04L161.73,128.04c-1.75-0.25-3.41,0.84-3.88,2.54l-13.01,46.98l3.07,28.44l14.6-2.31l-1.54-19.98
	l10.76-25.36l-7.1-27.7C164.28,129.27,163.14,128.24,161.73,128.04z"/>
<path class="st21" d="M220.46,56.65c-2.69-4.57-7.72-7.25-13.02-6.93c-2.72,0.34-5.37,1.08-7.87,2.2l-12.95,5.05
	c-3.35,1.31-7.02,2.91-8.47,6.2c-1.35,3.05-0.34,6.58,0.68,9.76l4.84,15.11c0.54-3.42,1.46-6.77,2.75-9.98
	c1.41-3.16,3.63-6.07,6.71-7.65c3.36-1.73,7.33-1.69,11.1-1.51c5.35,0.26,11.16,0.94,14.96,4.71c2.02,2.14,3.38,4.81,3.94,7.7
	c0.55,2.87,0.83,5.79,0.83,8.72c2.19-3.77,4.04-7.73,5.52-11.83c1.22-3.05,1.91-6.29,2.05-9.58c0.13-3.31-0.97-6.56-3.09-9.11
	c-2.19-2.45-5.75-3.77-8.89-2.8"/>
<path class="st10" d="M235.53,165.67l16.35-17.48c7.04-14.82,19.04-44.48,19.17-46.44L250.48,71.3l-8.62,8.39l11.85,27.26
	l-22.16,34.95c0.46,2.28-11.84,8.3-9.02,7.92C215.12,153.94,224.38,173.08,235.53,165.67z"/>
<circle class="st21" cx="191.55" cy="82.75" r="1.71"/>
<circle class="st21" cx="206.23" cy="82.75" r="1.71"/>
<path class="st22" d="M203.45,79.85c0,0,4.77-1.1,8.41,2.38"/>
<path class="st22" d="M189.06,79.85c0,0,4.77-1.1,8.41,2.38"/>
<ellipse class="st20" cx="196.71" cy="95.42" rx="2.08" ry="1"/>
<g>
	<path class="st10" d="M57.19,132.27c-0.44,0.67-0.86,1.36-1.33,2.02c-0.8,1.13-2.03,1.45-3.01,0.82c-0.98-0.63-1.26-1.95-0.53-3.08
		c1.78-2.76,3.61-5.5,5.44-8.23c0.53-0.79,1.34-1.06,2.26-0.86c0.96,0.21,1.45,0.9,1.58,1.82c0.08,0.55,0.06,1.12,0.05,1.68
		c-0.04,4.07,0.1,8.15-0.19,12.2c-0.39,5.48-4.38,9.87-9.77,11.03c-4.26,0.92-8.36,0.54-12.01-2.09c-3.19-2.29-5.1-5.42-5.17-9.36
		c-0.13-6.94-0.07-13.89-0.04-20.84c0-0.86-0.2-1.28-1.07-1.6c-4.35-1.61-6.51-6.68-4.7-10.86c1.85-4.28,7-6.22,11.32-4.27
		c3.17,1.43,5.01,4.35,4.89,7.74c-0.12,3.37-2.18,6.3-5.37,7.43c-0.8,0.28-0.98,0.67-0.98,1.44c0.03,6.53,0,13.07,0.02,19.6
		c0.02,5.2,3.55,8.75,8.75,8.97c3.95,0.16,7.18-1.06,9.09-4.68c0.55-1.05,0.83-2.33,0.93-3.52c0.15-1.74,0.04-3.5,0.04-5.26
		C57.34,132.34,57.26,132.3,57.19,132.27z M36.49,104.08c-2.36,0.01-4.2,1.75-4.23,4c-0.03,2.27,1.89,4.12,4.26,4.11
		c2.29-0.01,4.22-1.85,4.25-4.04C40.8,105.91,38.88,104.08,36.49,104.08z"/>
</g>
<line class="st24" x1="36.16" y1="101.67" x2="36.16" y2="86.27"/>
<line class="st24" x1="36.16" y1="68.38" x2="36.16" y2="57.45"/>
<line class="st24" x1="36.16" y1="34.95" x2="36.16" y2="27.1"/>
<line class="st24" x1="36.16" y1="7.68" x2="36.16" y2="3.55"/>
</svg>
