<?xml version="1.0" encoding="utf-8"?>
<!-- Generator: Adobe Illustrator 24.3.0, SVG Export Plug-In . SVG Version: 6.00 Build 0)  -->
<svg version="1.1" id="Capa_1" xmlns="http://www.w3.org/2000/svg" xmlns:xlink="http://www.w3.org/1999/xlink" x="0px" y="0px"
	 viewBox="0 0 438.55 438.55" style="enable-background:new 0 0 438.55 438.55;" xml:space="preserve">
<style type="text/css">
	.st0{fill:#6C5C7A;}
	.st1{fill:#FFFFFF;}
	.st2{fill:#FEFEFE;}
</style>
<g>
	<path class="st0" d="M219.54,76.64c52.05,0,104.08,0.05,156.13-0.11c4.75-0.01,6.31,0.97,5.83,6c-3.02,31.6-5.78,63.23-8.58,94.85
		c-2.16,24.34-4.24,48.68-6.41,73.01c-2.44,27.21-4.95,54.42-7.39,81.62c-2.17,24.14-4.39,48.28-6.33,72.43
		c-0.35,4.31-1.7,6.51-6.1,7.48c-35.12,7.78-70.39,14.97-105.18,23.99c-17,4.41-32.8,2.77-49.25-1.17
		c-32.9-7.87-65.93-15.26-98.97-22.55c-5.1-1.12-7.27-3.11-7.69-8.46c-2.25-28.96-4.74-57.91-7.39-86.84
		c-2.51-27.38-5.44-54.71-7.97-82.08c-1.37-14.74-2.16-29.54-3.46-44.28c-2.04-23.18-4.36-46.35-6.42-69.53
		c-1.21-13.61-2.01-27.25-3.32-40.84c-0.44-4.5,2.39-3.51,4.66-3.51c30.46-0.03,60.91-0.02,91.37-0.02
		C175.21,76.64,197.38,76.64,219.54,76.64z M220.3,139.23c0,0.09,0,0.19,0,0.27c-29.46,0-58.94,0.09-88.4-0.09
		c-4.75-0.03-6.75,0.56-6.21,6.22c4.03,42.34,7.67,84.71,11.51,127.06c0.9,9.89,1.04,9.89,10.96,9.92
		c35.28,0.08,70.57,0.21,105.85,0.14c4.32-0.01,6.29,0.78,5.77,5.7c-1.38,12.82-2.37,25.67-3.35,38.53c-0.2,2.58-1.09,3.58-3.67,4.1
		c-5.29,1.04-10.4,3.08-15.7,3.75c-7.88,0.99-15.29,5.6-23.7,2.98c-5.88-1.83-11.89-3.19-17.84-4.78
		c-11.16-2.99-11.16-3-12.45-14.53c-0.2-1.71-0.6-3.46-0.47-5.15c0.28-3.67-1.38-4.58-4.79-4.41c-10.59,0.5-21.19,0.99-31.79,1
		c-4.64,0.01-5.42,1.83-5.01,5.91c1.31,13.4,2.56,26.82,3.39,40.26c0.25,4.02,1.63,5.65,5.44,6.58
		c18.48,4.58,36.84,9.66,55.37,14.04c5.9,1.4,11.82,4.19,18.12,2.76c23.05-5.23,46.07-10.66,69.14-15.86
		c2.6-0.59,3.39-1.68,3.59-4.18c1.49-18.2,3.02-36.41,4.7-54.6c1.68-18.38,3.44-36.76,5.36-55.11c0.7-6.71,0.85-6.87-5.92-6.86
		c-38.76,0.07-77.5,0.15-116.26,0.23c-7.72,0.01-7.69,0.01-8.31-7.8c-1.26-15.74-2.38-31.47-3.93-47.19
		c-0.85-8.63-1.18-8.62,7.35-8.59c42.21,0.1,84.41,0.14,126.62,0.41c4.86,0.03,6.62-1.15,6.81-6.31c0.36-9.39,1.51-18.77,2.72-28.11
		c0.58-4.43-0.34-6.38-5.23-6.36C280.07,139.3,250.18,139.23,220.3,139.23z"/>
	<path class="st1" d="M261.68,20.01c-3.28,6.37-6.52,12.35-9.46,18.49c-1.29,2.7-2.93,4.53-6,4.54c-3.09,0.01-4.73-1.93-6.02-4.55
		c-2.96-6.02-6.1-11.95-10.39-17.87c0,7.25-0.22,14.51,0.09,21.75c0.17,4.11-0.73,5.83-5.31,5.68c-3.87-0.13-5.3-0.9-5.2-5.08
		c0.28-12.11,0.01-24.23,0.19-36.35c0.03-2.09-1.76-5.8,2.25-5.92c3.87-0.11,8.59-2.14,11.19,3.2c4.1,8.4,8.4,16.7,13.18,26.13
		c4.48-8.85,8.49-16.78,12.53-24.7c2.19-4.29,8.16-6.42,12.61-4.77c1.81,0.68,1.52,2.01,1.53,3.27c0.02,13.66-0.07,27.31,0.05,40.97
		c0.04,4.46-3.08,2.88-5.22,3.06c-2.46,0.2-5.09,0.63-4.96-3.43c0.21-6.53,0.07-13.07,0.09-19.6
		C262.83,23.37,263.22,21.86,261.68,20.01z"/>
	<path class="st1" d="M173.48,24.01c0,6.74-0.23,13.5,0.08,20.22c0.22,4.6-2.76,3.84-5.27,3.59c-2.35-0.24-6.4,1.95-5.98-3.37
		c0.05-0.76,0.02-1.54,0.03-2.32c0.07-14.94,0.08-14.86-15.26-14.05c-2.75,0.14-3.73,0.88-3.59,3.66c0.21,4.23-0.12,8.49,0.17,12.71
		c0.29,4.2-2.53,3.81-4.86,3.35c-2.4-0.48-6.72,2.51-6.69-3.3c0.07-13.49,0.13-26.97-0.09-40.45c-0.08-4.56,2.86-3.84,5.37-3.6
		c2.38,0.23,6.37-1.88,6.14,3.34c-0.03,0.76,0,1.54,0,2.32c0.09,15,0.09,14.94,15.23,14.02c2.68-0.16,3.75-0.87,3.6-3.7
		c-0.22-4.23,0.02-8.47-0.04-12.71c-0.08-5.24,3.87-2.96,6.24-3.24c2.33-0.27,5.13-0.92,4.98,3.31
		C173.3,10.53,173.48,17.28,173.48,24.01z"/>
	<path class="st1" d="M190.85,28.16c0-4.62-0.26-9.26,0.08-13.85c0.29-3.95-1.3-5.09-4.89-4.58c-1.14,0.16-2.33-0.11-3.46,0.04
		c-3.63,0.48-4.99-0.71-4.97-4.65c0.02-3.88,1.24-4.88,4.95-4.79c9.62,0.23,19.26,0.27,28.88-0.01c4.1-0.12,4.17,1.91,4.16,4.94
		c-0.01,2.86-0.23,4.54-3.92,4.61c-9.26,0.16-9.25,0.37-9.26,9.85c0,7.88-0.36,15.8,0.09,23.66c0.28,4.9-2.33,4.62-5.61,4.55
		c-3.35-0.07-6.63,0.55-6.17-4.78c0.44-4.97,0.09-9.99,0.09-15C190.84,28.16,190.84,28.16,190.85,28.16z"/>
	<path class="st1" d="M279.95,23.97c-0.01-6.17,0.32-12.35-0.11-18.49c-0.34-4.79,1.85-5.34,5.78-5.17c3.47,0.15,6.19-0.28,5.92,4.9
		c-0.48,9.23,0.22,18.51-0.27,27.73c-0.27,5.08,1.46,6.36,6.04,5.65c1.89-0.29,3.9,0.22,5.77-0.12c6.02-1.08,5.92,2.62,5.73,6.77
		c-0.09,1.99-0.74,2.7-2.72,2.68c-7.71-0.1-15.42-0.22-23.12-0.07c-2.99,0.07-2.99-1.64-2.99-3.66
		C279.95,37.46,279.96,30.72,279.95,23.97z"/>
	<path class="st2" d="M220.3,139.23c29.89,0,59.77,0.07,89.66-0.07c4.89-0.02,5.81,1.92,5.23,6.36c-1.21,9.34-2.37,18.72-2.72,28.11
		c-0.2,5.18-1.95,6.34-6.81,6.31c-42.21-0.27-84.41-0.32-126.62-0.41c-8.53-0.02-8.2-0.03-7.35,8.59
		c1.54,15.7,2.66,31.45,3.93,47.19c0.62,7.81,0.58,7.82,8.31,7.8c38.76-0.08,77.5-0.16,116.26-0.23c6.77-0.01,6.62,0.15,5.92,6.86
		c-1.92,18.36-3.68,36.74-5.36,55.11c-1.67,18.19-3.21,36.4-4.7,54.6c-0.21,2.5-0.99,3.59-3.59,4.18
		c-23.06,5.2-46.07,10.63-69.14,15.86c-6.31,1.43-12.22-1.37-18.12-2.76c-18.53-4.38-36.89-9.46-55.37-14.04
		c-3.81-0.94-5.19-2.57-5.44-6.58c-0.82-13.44-2.06-26.85-3.39-40.26c-0.4-4.07,0.37-5.9,5.01-5.91c10.59-0.02,21.2-0.5,31.79-1
		c3.42-0.16,5.08,0.74,4.79,4.41c-0.13,1.69,0.27,3.44,0.47,5.15c1.29,11.53,1.29,11.54,12.45,14.53
		c5.95,1.59,11.97,2.95,17.84,4.78c8.41,2.62,15.8-2,23.7-2.98c5.31-0.67,10.43-2.71,15.7-3.75c2.58-0.5,3.47-1.51,3.67-4.1
		c0.98-12.85,1.98-25.72,3.35-38.53c0.52-4.93-1.43-5.71-5.77-5.7c-35.28,0.07-70.57-0.07-105.85-0.14
		c-9.92-0.02-10.06-0.01-10.96-9.92c-3.83-42.35-7.47-84.73-11.51-127.06c-0.54-5.67,1.46-6.25,6.21-6.22
		c29.46,0.17,58.93,0.09,88.4,0.09C220.3,139.42,220.3,139.32,220.3,139.23z"/>
</g>
</svg>
