<?xml version="1.0" encoding="utf-8"?>
<!-- Generator: Adobe Illustrator 24.3.0, SVG Export Plug-In . SVG Version: 6.00 Build 0)  -->
<svg version="1.1" id="Capa_1" xmlns="http://www.w3.org/2000/svg" xmlns:xlink="http://www.w3.org/1999/xlink" x="0px" y="0px"
	 viewBox="0 0 438.55 438.55" style="enable-background:new 0 0 438.55 438.55;" xml:space="preserve">
<style type="text/css">
	.st0{fill:#6C5C7A;}
	.st1{fill:#FEFEFE;}
</style>
<path class="st0" d="M219.22,76.37c51.74,0.01,103.48,0.07,155.21-0.1c4.87-0.02,6.68,0.74,6.26,6.19
	c-1.81,23.89-4.01,47.74-6.43,71.58c-2.05,20.23-3.49,40.52-5.31,60.77c-1.98,21.96-4.17,43.9-6.1,65.86
	c-1.5,17.01-2.69,34.05-4.13,51.07c-2.04,24.07-4.3,48.12-6.17,72.21c-0.31,4.06-1.83,5.71-5.57,6.53
	c-21.53,4.73-43.04,9.56-64.54,14.44c-18.3,4.15-36.59,8.35-54.85,12.63c-5.35,1.25-10.58,1.37-15.96,0.12
	c-31.38-7.23-62.77-14.37-94.17-21.5c-8.41-1.91-16.85-3.68-25.28-5.48c-3.4-0.73-5.7-1.78-6.04-6.18
	c-2.08-26.95-4.5-53.87-6.87-80.79c-2.29-25.93-4.69-51.86-7-77.79c-2.23-25.02-4.36-50.04-6.63-75.05
	c-2.65-29.21-5.31-58.42-8.2-87.6c-0.54-5.48,0.81-7.08,6.57-7.05C115.74,76.47,167.48,76.37,219.22,76.37z M285.95,132.81
	c0-0.02,0-0.04,0-0.06c-14.42,0-28.84,0.18-43.26-0.11c-4.31-0.09-5.68,1.13-5.75,5.4c-0.39,21.48-1.23,42.96-1.55,64.44
	c-0.39,25.54-0.33,51.09-0.71,76.64c-0.06,4.32,1.65,5.21,5.42,5.12c10.55-0.26,21.18,0.2,31.59-1.47c5.32-0.85,5.36,1.28,4.96,5.11
	c-1.67,16-3.48,31.99-4.75,48.02c-0.39,4.96-1.88,7.52-6.95,8.7c-9.68,2.23-19.17,5.25-28.79,7.71c-2.8,0.72-3.53,2.09-3.5,4.8
	c0.14,9.6,0.21,19.21-0.03,28.81c-0.1,3.83,1.49,4.86,4.77,4.13c6.09-1.36,12.13-2.92,18.21-4.3c17.33-3.93,34.66-7.86,52.02-11.68
	c2.46-0.54,3.61-1.65,3.83-4.16c2.24-25.35,5.48-50.61,7.04-76.03c0.62-10.12,1.28-20.34,2.79-30.27c1.26-8.3,0.75-16.73,2.71-24.93
	c0.86-3.59,0.38-7.1-5-6.65c-11.64,0.96-23.32,1.61-34.94,2.73c-7.8,0.75-8.61,0.52-8.33-7.19c0.58-16.12,1.19-32.24,0.77-48.36
	c-0.13-4.92,1.76-6.05,6.39-5.95c14.6,0.3,29.22,0.2,43.83,0.06c1.76-0.02,4.61,1.47,4.86-2.78c0.62-10.67,1.65-21.33,2.83-31.96
	c0.53-4.78-1.4-5.89-5.77-5.83C314.4,132.93,300.18,132.81,285.95,132.81z M203.69,263.46c0.02,0,0.03,0,0.05,0
	c0-41.48-0.05-82.97,0.07-124.45c0.01-4.74-1.45-6.32-6.35-6.07c-9.01,0.45-18.15,0.91-27.06-0.1c-6.6-0.75-6.93,1.77-6.92,6.93
	c0.12,63.96,0.08,127.92,0.08,191.88c0,1.92,0.03,3.84-0.03,5.76c-0.03,0.89,0.1,1.79-1.22,2.19c-3.89,1.19-13.82-3.94-15.1-8.06
	c-0.74-2.39-2.52-3.07-4.63-3.69c-7.91-2.3-15.83-4.55-23.65-7.12c-4.16-1.37-4.98-0.23-4.58,3.91c1.26,13.15,2.28,26.33,3.18,39.51
	c0.63,9.15,1.26,9.89,9.93,11.79c23.55,5.15,47.07,10.39,70.58,15.73c4,0.91,5.78,0.69,5.76-4.32
	C203.6,346.05,203.69,304.76,203.69,263.46z"/>
<path class="st1" d="M234.84,0.04c2.55-0.2,5.64,0.34,8.41,1.6c2.13,0.96,5.93,1.37,4.19,5.35c-1.41,3.23-3.1,6.55-7.65,3.72
	c-0.8-0.5-1.72-0.91-2.64-1.1c-3.23-0.64-7.04-1.55-8.46,2.4c-1.5,4.15,2.57,4.84,5.23,6.03c1.91,0.86,3.99,1.33,5.96,2.07
	c6.34,2.4,9.17,6.25,9.2,12.34c0.02,6.56-3.63,12.09-9.58,14.26c-7.39,2.69-14.28,1.33-20.85-2.69c-2.13-1.3-3.23-2.59-1.32-4.96
	c1.59-1.97,2.32-5.32,6-3.49c2.57,1.27,4.94,3.11,7.85,3.39c3.02,0.29,5.95-0.41,6.99-3.73c1.07-3.43-1.48-4.79-4.08-5.85
	c-1.41-0.58-2.91-0.94-4.37-1.41c-9.54-3.04-13.27-8.03-12.05-16.11C218.79,4.47,225.16-0.07,234.84,0.04z"/>
<path class="st1" d="M212.09,19.65c-0.46,4.96,0.78,10.92-0.77,16.79c-2.43,9.21-12.53,14.53-21.28,11.21
	c-3.13-1.19-1.14-3.55-1.32-5.37c-0.22-2.21,0.78-3.51,3.26-3.7c7.9-0.59,8.48-1.18,8.57-9.08c0.1-8.42,0.25-16.86-0.05-25.27
	c-0.19-5.44,3.52-3.78,6.22-3.93c2.82-0.16,5.88-0.77,5.45,4.06C211.77,9.12,212.09,13.93,212.09,19.65z"/>
<path class="st1" d="M285.95,132.81c14.23,0,28.45,0.12,42.68-0.07c4.38-0.06,6.31,1.06,5.77,5.83
	c-1.18,10.63-2.21,21.29-2.83,31.96c-0.25,4.24-3.11,2.76-4.86,2.78c-14.61,0.15-29.22,0.24-43.83-0.06
	c-4.63-0.09-6.52,1.03-6.39,5.95c0.42,16.12-0.19,32.24-0.77,48.36c-0.28,7.71,0.53,7.95,8.33,7.19c11.63-1.12,23.3-1.77,34.94-2.73
	c5.38-0.45,5.86,3.06,5,6.65c-1.96,8.2-1.45,16.63-2.71,24.93c-1.51,9.93-2.17,20.15-2.79,30.27c-1.56,25.42-4.79,50.68-7.04,76.03
	c-0.22,2.52-1.36,3.62-3.83,4.16c-17.36,3.82-34.69,7.75-52.02,11.68c-6.08,1.38-12.13,2.94-18.21,4.3
	c-3.28,0.73-4.87-0.3-4.77-4.13c0.24-9.6,0.17-19.21,0.03-28.81c-0.04-2.71,0.69-4.08,3.5-4.8c9.63-2.46,19.12-5.48,28.79-7.71
	c5.07-1.17,6.56-3.74,6.95-8.7c1.28-16.03,3.08-32.02,4.75-48.02c0.4-3.82,0.36-5.96-4.96-5.11c-10.42,1.67-21.04,1.21-31.59,1.47
	c-3.77,0.09-5.49-0.8-5.42-5.12c0.38-25.54,0.32-51.09,0.71-76.64c0.33-21.48,1.16-42.96,1.55-64.44c0.08-4.28,1.44-5.49,5.75-5.4
	c14.41,0.3,28.84,0.11,43.26,0.11C285.95,132.77,285.95,132.79,285.95,132.81z"/>
<path class="st1" d="M203.69,263.46c0,41.3-0.09,82.59,0.11,123.89c0.02,5.02-1.76,5.23-5.76,4.32
	c-23.5-5.34-47.03-10.58-70.58-15.73c-8.68-1.9-9.31-2.64-9.93-11.79c-0.9-13.18-1.92-26.36-3.18-39.51
	c-0.4-4.14,0.42-5.28,4.58-3.91c7.82,2.57,15.75,4.82,23.65,7.12c2.1,0.61,3.89,1.29,4.63,3.69c1.28,4.12,11.21,9.25,15.1,8.06
	c1.31-0.4,1.19-1.31,1.22-2.19c0.06-1.92,0.03-3.84,0.03-5.76c0-63.96,0.04-127.92-0.08-191.88c-0.01-5.15,0.32-7.67,6.92-6.93
	c8.92,1.01,18.05,0.55,27.06,0.1c4.91-0.24,6.37,1.33,6.35,6.07c-0.12,41.48-0.07,82.97-0.07,124.45
	C203.72,263.46,203.7,263.46,203.69,263.46z"/>
</svg>
