<?xml version="1.0" encoding="utf-8"?>
<!-- Generator: Adobe Illustrator 24.3.0, SVG Export Plug-In . SVG Version: 6.00 Build 0)  -->
<svg version="1.1" id="Capa_1" xmlns="http://www.w3.org/2000/svg" xmlns:xlink="http://www.w3.org/1999/xlink" x="0px" y="0px"
	 viewBox="0 0 438.55 438.55" style="enable-background:new 0 0 438.55 438.55;" xml:space="preserve">
<style type="text/css">
	.st0{fill:#FEFEFE;}
	.st1{fill:#6C5C7A;}
</style>
<path class="st0" d="M380.74,49.82v362.83H17.89v22.58h385.44V49.82H380.74z"/>
<path class="st1" d="M158.89,49.82h47.03v48.36h-47.03V49.82z"/>
<path class="st1" d="M228.5,49.82h47.03v48.36H228.5V49.82z"/>
<path class="st1" d="M17.92,120.76h48.77v47.03H17.92V120.76z"/>
<path class="st1" d="M228.5,120.76h47.03v47.03H228.5V120.76z"/>
<path class="st1" d="M89.27,49.82h47.03v48.36H89.27V49.82z"/>
<path class="st1" d="M17.92,190.38h48.77v47.03H17.92V190.38z"/>
<path class="st1" d="M89.27,120.76h47.03v47.03H89.27V120.76z"/>
<path class="st1" d="M298.11,49.82h48.77v48.36h-48.77V49.82z"/>
<path class="st1" d="M228.5,190.38h47.03v47.03H228.5V190.38z"/>
<path class="st1" d="M158.89,190.38h47.03v47.03h-47.03V190.38z"/>
<path class="st1" d="M158.89,259.99h47.03v47.03h-47.03V259.99z"/>
<path class="st1" d="M158.89,120.76h47.03v47.03h-47.03V120.76z"/>
<path class="st1" d="M89.27,190.38h47.03v47.03H89.27V190.38z"/>
<path class="st1" d="M298.11,120.76h48.77v47.03h-48.77V120.76z"/>
<path class="st1" d="M298.11,190.38h48.77v47.03h-48.77V190.38z"/>
<path class="st1" d="M17.92,49.82h48.77v48.36H17.92V49.82z"/>
<path class="st1" d="M17.92,329.61h48.77v49.18H17.92V329.61z"/>
<path class="st1" d="M298.11,259.99h48.77v47.03h-48.77V259.99z"/>
<path class="st1" d="M298.11,329.61h48.77v49.18h-48.77V329.61z"/>
<path class="st1" d="M89.27,329.61h47.03v49.18H89.27V329.61z"/>
<path class="st1" d="M17.92,259.99h48.77v47.03H17.92V259.99z"/>
<path class="st1" d="M89.27,259.99h47.03v47.03H89.27V259.99z"/>
<path class="st1" d="M228.5,329.61h47.03v49.18H228.5V329.61z"/>
<path class="st1" d="M158.89,329.61h47.03v49.18h-47.03V329.61z"/>
<path class="st1" d="M228.5,259.99h47.03v47.03H228.5V259.99z"/>
</svg>
