<?xml version="1.0" encoding="utf-8"?>
<!-- Generator: Adobe Illustrator 24.3.0, SVG Export Plug-In . SVG Version: 6.00 Build 0)  -->
<svg version="1.1" id="Capa_1" xmlns="http://www.w3.org/2000/svg" xmlns:xlink="http://www.w3.org/1999/xlink" x="0px" y="0px"
	 viewBox="0 0 512 512" style="enable-background:new 0 0 512 512;" xml:space="preserve">
<style type="text/css">
	.st0{fill:#6C5C7A;stroke:#6C5C7A;stroke-width:14.5696;stroke-miterlimit:10;}
	.st1{fill:#6C5C7A;stroke:#6C5C7A;stroke-miterlimit:10;}
</style>
<g>
	<g>
		<path class="st0" d="M75.99,336.98H30.24c-7.86,0-14.24,6.37-14.24,14.24v137.26c0,7.86,6.37,14.24,14.24,14.24h123.02h119.98
			h123.02c7.86,0,14.24-6.37,14.24-14.24V365.45h31.51c33.08,0,59.99-26.91,59.99-59.99s-26.91-59.99-59.99-59.99H410.5V122.45
			c0-7.86-6.37-14.24-14.24-14.24H259c-7.86,0-14.24,6.37-14.24,14.24v45.75c0,17.38-14.14,31.51-31.51,31.51
			s-31.51-14.14-31.51-31.51v-45.75c0-7.86-6.37-14.24-14.24-14.24H30.24c-7.86,0-14.24,6.37-14.24,14.24v137.26
			c0,7.86,6.37,14.24,14.24,14.24h45.75c17.38,0,31.52,14.14,31.52,31.51C107.5,322.84,93.37,336.98,75.99,336.98z M75.99,245.47
			H44.48V136.69h108.78v31.51c0,33.08,26.91,59.99,59.99,59.99s59.99-26.91,59.99-59.99v-31.51h108.78v123.02
			c0,7.86,6.37,14.24,14.24,14.24h45.75c17.38,0,31.51,14.14,31.51,31.51c0,17.38-14.14,31.51-31.51,31.51h-45.75
			c-7.86,0-14.24,6.37-14.24,14.24v123.02H44.48V365.45h31.51c33.08,0,59.99-26.91,59.99-59.99S109.07,245.47,75.99,245.47z"/>
	</g>
</g>
<g>
	<path class="st1" d="M-134.21,337.13c47.84,47.75,17.37,18.56,64.73,65.94c4.97,4.97,13.7,10.29,8.59,17.88
		c-5.74,8.52-14.37,15.57-23.03,21.33c-2.16,1.44-10.22-3.52-13.94-7.19c-45.21-44.69-12.2-13.18-57.16-58.12
		c-2.97-2.97-5.73-6.14-9.17-9.84c-57.09,42.43-119.51,56.66-187.74,36.23c-47.93-14.35-85.96-42.98-112.85-85.5
		c-54.45-86.09-37.95-197.47,38.86-263.38c76.24-65.42,190.64-65.17,265.91,0.14C-84.45,120.18-60.18,240.56-134.21,337.13z
		 M-453.47,209.03c-0.02,88.51,72.38,160.99,160.67,160.84c88.23-0.16,161.24-73.15,161.05-161.02
		C-131.93,120.42-204.32,48.49-293,48.59C-381.95,48.7-453.45,120.19-453.47,209.03z"/>
</g>
<path class="st0" d="M273.24,502.71"/>
<path class="st0" d="M273.24,502.71"/>
</svg>
