<?xml version="1.0" encoding="utf-8"?>
<!-- Generator: Adobe Illustrator 24.3.0, SVG Export Plug-In . SVG Version: 6.00 Build 0)  -->
<svg version="1.1" id="Capa_1" xmlns="http://www.w3.org/2000/svg" xmlns:xlink="http://www.w3.org/1999/xlink" x="0px" y="0px"
	 viewBox="0 0 438.55 438.55" style="enable-background:new 0 0 438.55 438.55;" xml:space="preserve">
<style type="text/css">
	.st0{fill:#6C5C7A;stroke:#6C5C7A;stroke-width:9;stroke-linecap:round;stroke-linejoin:round;stroke-miterlimit:10;}
	.st1{fill:#FFFFFF;}
</style>
<g>
	<path class="st0" d="M225.73,93.34c8.93,11.45,17.16,22,25.38,32.56c4.73,6.07,5.18,9.19,1.76,12.05
		c-3.55,2.96-6.72,1.73-11.66-4.58c-12.89-16.48-25.78-32.98-38.88-49.75c1.28-1.01,2.29-1.92,3.42-2.68
		c16.78-11.28,33.58-22.53,50.37-33.79c0.74-0.5,1.47-1.02,2.24-1.48c3.44-2.11,6.68-1.79,8.89,1.62c2.22,3.42,1.13,6.55-2.17,8.79
		c-9.04,6.12-18.13,12.16-27.19,18.25c-1.62,1.09-3.2,2.23-5.62,3.92c2.24,0.65,3.79,1.16,5.36,1.55
		c68.45,16.89,116.48,77.4,115.25,147.78c-1.05,60.03-29.4,104.45-81.9,133.48c-1.56,0.86-3.34,1.39-4.78,2.42
		c-17.53,12.5-37.26,14.59-58.2,14.26c-45.82-0.73-91.65-0.22-137.48-0.23c-1.61,0-3.25,0.11-4.83-0.12
		c-4.39-0.65-6.71-3.51-6.65-7.74c0.05-4.01,2.44-6.67,6.52-7.35c1.75-0.29,3.57-0.14,5.36-0.13c43.86,0.1,87.72,0.1,131.58,0.33
		c43.71,0.23,78.82-17.73,105.62-51.39c62.58-78.58,21-195.55-76.68-216.77C229.92,93.99,228.39,93.79,225.73,93.34z"/>
	<path class="st0" d="M135.24,345.63c-8.33,0-16.65,0.11-24.97-0.11c-1.37-0.04-2.86-1.36-4.03-2.38
		c-45.45-39.63-63.94-89.49-51.3-148.32c12.45-57.95,49.3-95.45,105.85-113.37c5.8-1.84,10.04,0.03,11.45,4.55
		c1.47,4.69-1.26,8.41-7.37,10.38c-51.8,16.66-84.37,51.49-95.45,104.69c-11.5,55.17,13.38,110.52,61.25,140.58
		c1.6,1,3.18,2.04,4.77,3.06C135.37,345,135.31,345.32,135.24,345.63z"/>
	<path class="st0" d="M389.66,362.11c-7.65-7.13-14.25-13.3-20.86-19.46c-3.4-3.17-6.83-6.32-10.22-9.51
		c-3.07-2.89-3.78-6.26-0.76-9.42c2.82-2.95,6.13-2.51,9.05,0.2c16.26,15.09,32.5,30.2,49.01,45.56c-0.87,1.06-1.52,2.07-2.38,2.86
		c-15.05,14.04-30.11,28.07-45.22,42.04c-1.41,1.3-3.27,3.19-4.78,3.07c-2.34-0.18-5.84-1.36-6.51-3.04
		c-0.81-2.05-0.08-5.94,1.5-7.51c8.73-8.72,17.92-16.98,26.95-25.4c1.03-0.96,2.05-1.93,4.13-3.88c-37.26,0-73.29,0-110.47,0
		c8.3-5.42,15.35-10.19,22.6-14.63c1.51-0.92,3.77-0.83,5.68-0.84c25.06-0.06,50.11-0.04,75.17-0.05
		C384.43,362.11,386.32,362.11,389.66,362.11z"/>
</g>
<circle class="st1" cx="199.96" cy="231.55" r="46.46"/>
</svg>
