<?xml version="1.0" encoding="utf-8"?>
<!-- Generator: Adobe Illustrator 24.3.0, SVG Export Plug-In . SVG Version: 6.00 Build 0)  -->
<svg version="1.1" id="Capa_1" xmlns="http://www.w3.org/2000/svg" xmlns:xlink="http://www.w3.org/1999/xlink" x="0px" y="0px"
	 viewBox="0 0 1128.23 438.55" style="enable-background:new 0 0 1128.23 438.55;" xml:space="preserve">
<style type="text/css">
	.st0{fill:#6C5C7A;}
	.st1{fill:#FFFFFF;}
	.st2{fill:#FEFEFE;}
</style>
<g>
	<path class="st0" d="M193.53,104.55c-33.63,0-62.83-0.23-92.03,0.25c-4.41,0.07-9.24,2.79-13.06,5.45
		c-13.01,9.05-27.28,8.24-36.6-2.68c-8.06-9.44-8.01-23.91,0.14-33.31c9.45-10.92,23.12-11.33,36.69-2.48
		c4.97,3.24,11.69,5.3,17.62,5.33c61.45,0.38,122.91,0.54,184.35-0.17c7.49-0.09,15.93-4.34,22.13-9.05
		c9.55-7.26,17.5-16.62,26.2-25.01c7.04-6.79,14.27-6.8,21.27-0.01C372.89,55.15,385.45,67.52,398,79.9
		c7.53,7.43,7.22,15-0.01,22.44c-8.08,8.3-15.8,17.04-24.51,24.62c-7.31,6.36-8.62,12.54-3.98,20.86
		c23.75,42.52,46.94,85.37,71.2,127.59c9.5,16.54,10.01,18.6-4.89,30.84c-20.06,16.49-27.69,38.8-29.49,63.83
		c-1.69,23.48-2.89,24.5-26.14,24.51c-21.66,0.01-43.32-0.13-64.98,0.05c-10.95,0.09-16.89-4.34-17.43-15.87
		c-1.49-31.7-11.46-58.85-40.01-76.9c-11.03-6.97-5.53-15.83-0.34-24.81c23.62-40.87,46.95-81.92,69.57-123.36
		c3.32-6.08,5.72-18.35,2.55-21.28c-11.43-10.56-17.58-31.02-38.27-27.12c-23.09,4.35-47.14,7.58-68.42,16.74
		c-50.64,21.81-74.41,63.94-78.52,117.67c-0.46,5.98,2.94,13.47,6.92,18.33c7.94,9.69,17.5,18.06,26.44,26.93
		c7.91,7.84,8.13,15.59,0.1,23.55c-12.16,12.05-24.22,24.21-36.33,36.33c-8.03,8.03-15.88,7.32-23.63-0.44
		c-11.74-11.77-23.47-23.55-35.27-35.25c-8.45-8.38-8.93-17.09,0.37-24.58c23.28-18.76,34.66-41.61,38.37-72.44
		c4.9-40.63,27.62-73.98,61.15-98.83C185.11,111.31,187.68,109.17,193.53,104.55z M335.95,208.73c-1.12-0.03-2.24-0.06-3.36-0.1
		c-15.8,26.11-31.59,52.21-47.87,79.12c24.82,20.51,35.92,47.95,39.96,78.88c18.5,0,35.88,0,54.3,0
		c2.64-30.96,13.84-57.71,35.77-78.89c-16.65-27.48-32.82-54.16-48.99-80.84c-2.62,14.98-2.69,29.4-2.59,43.81
		c0.07,9.91-1.92,19.33-13.89,19.07c-11.91-0.25-13.46-9.87-13.36-19.68C336.05,236.32,335.95,222.53,335.95,208.73z M350.65,70.91
		c-8.2,7.71-14.67,13.79-20.28,19.06c6.74,7.09,13.12,13.8,19.11,20.1c6.96-6.13,13.9-12.25,20.48-18.05
		C362.94,84.35,356.95,77.8,350.65,70.91z M131.16,278.01c-6.98,6.2-13.96,12.4-21.68,19.26c6.87,6.96,13.13,13.3,19.84,20.1
		c7.54-7.37,14.2-13.88,20.9-20.42C143.52,290.3,137.46,284.28,131.16,278.01z"/>
	<path class="st0" d="M349.75,436.94c-26.63,0-53.27-0.16-79.9,0.08c-9.66,0.09-18.02-2.33-18.3-13.1
		c-0.3-11.74,8.38-14.29,18.66-14.26c52.76,0.16,105.53,0.17,158.29-0.01c10.17-0.03,19.15,2.1,19.03,13.89
		c-0.12,11.87-9.36,13.58-19.39,13.49C402.01,436.78,375.88,436.95,349.75,436.94z"/>
	<path class="st1" d="M350.65,70.91c6.3,6.88,12.29,13.44,19.31,21.12c-6.58,5.8-13.52,11.92-20.48,18.05
		c-5.99-6.3-12.37-13.02-19.11-20.1C335.98,84.7,342.45,78.62,350.65,70.91z"/>
	<path class="st1" d="M131.16,278.01c6.31,6.27,12.36,12.28,19.06,18.94c-6.7,6.55-13.36,13.05-20.9,20.42
		c-6.71-6.8-12.97-13.14-19.84-20.1C117.19,290.42,124.17,284.22,131.16,278.01z"/>
</g>
<path class="st2" d="M1074.56,51.62v362.83H711.71v22.58h385.44V51.62H1074.56z"/>
<path class="st0" d="M852.71,51.62h47.03v48.36h-47.03V51.62z"/>
<path class="st0" d="M922.32,51.62h47.03v48.36h-47.03V51.62z"/>
<path class="st0" d="M711.74,122.56h48.77v47.03h-48.77V122.56z"/>
<path class="st0" d="M922.32,122.56h47.03v47.03h-47.03V122.56z"/>
<path class="st0" d="M783.09,51.62h47.03v48.36h-47.03V51.62z"/>
<path class="st0" d="M711.74,192.18h48.77v47.03h-48.77V192.18z"/>
<path class="st0" d="M783.09,122.56h47.03v47.03h-47.03V122.56z"/>
<path class="st0" d="M991.93,51.62h48.77v48.36h-48.77V51.62z"/>
<path class="st0" d="M922.32,192.18h47.03v47.03h-47.03V192.18z"/>
<path class="st0" d="M852.71,192.18h47.03v47.03h-47.03V192.18z"/>
<path class="st0" d="M852.71,261.79h47.03v47.03h-47.03V261.79z"/>
<path class="st0" d="M852.71,122.56h47.03v47.03h-47.03V122.56z"/>
<path class="st0" d="M783.09,192.18h47.03v47.03h-47.03V192.18z"/>
<path class="st0" d="M991.93,122.56h48.77v47.03h-48.77V122.56z"/>
<path class="st0" d="M991.93,192.18h48.77v47.03h-48.77V192.18z"/>
<path class="st0" d="M711.74,51.62h48.77v48.36h-48.77V51.62z"/>
<path class="st0" d="M711.74,331.41h48.77v49.18h-48.77V331.41z"/>
<path class="st0" d="M991.93,261.79h48.77v47.03h-48.77V261.79z"/>
<path class="st0" d="M991.93,331.41h48.77v49.18h-48.77V331.41z"/>
<path class="st0" d="M783.09,331.41h47.03v49.18h-47.03V331.41z"/>
<path class="st0" d="M711.74,261.79h48.77v47.03h-48.77V261.79z"/>
<path class="st0" d="M783.09,261.79h47.03v47.03h-47.03V261.79z"/>
<path class="st0" d="M922.32,331.41h47.03v49.18h-47.03V331.41z"/>
<path class="st0" d="M852.71,331.41h47.03v49.18h-47.03V331.41z"/>
<path class="st0" d="M922.32,261.79h47.03v47.03h-47.03V261.79z"/>
</svg>
